<svg width="60" height="16" viewBox="0 0 60 16" fill="none" xmlns="http://www.w3.org/2000/svg">
<path d="M26.3442 6H27.5202L24.6082 13H23.4882L20.5762 6H21.8502L24.0622 11.866L26.3442 6ZM31.8816 5.86C32.5443 5.86 33.1276 6.00467 33.6316 6.294C34.145 6.58333 34.5463 7.00333 34.8356 7.554C35.125 8.09533 35.2696 8.744 35.2696 9.5C35.2696 10.256 35.125 10.9093 34.8356 11.46C34.5463 12.0013 34.145 12.4167 33.6316 12.706C33.1276 12.9953 32.5443 13.14 31.8816 13.14C31.2283 13.14 30.645 12.9953 30.1316 12.706C29.6183 12.4167 29.217 12.0013 28.9276 11.46C28.6383 10.9093 28.4936 10.256 28.4936 9.5C28.4936 8.744 28.6383 8.09533 28.9276 7.554C29.217 7.00333 29.6183 6.58333 30.1316 6.294C30.645 6.00467 31.2283 5.86 31.8816 5.86ZM31.8816 6.826C31.1723 6.826 30.617 7.064 30.2156 7.54C29.8143 8.016 29.6136 8.66933 29.6136 9.5C29.6136 10.3307 29.8143 10.984 30.2156 11.46C30.617 11.936 31.1723 12.174 31.8816 12.174C32.591 12.174 33.1463 11.936 33.5476 11.46C33.949 10.984 34.1496 10.3307 34.1496 9.5C34.1496 8.66933 33.949 8.016 33.5476 7.54C33.1463 7.064 32.591 6.826 31.8816 6.826ZM38.4422 2.78V11.222C38.4422 11.5767 38.5075 11.824 38.6382 11.964C38.7688 12.0947 38.9788 12.16 39.2682 12.16C39.4548 12.16 39.6088 12.146 39.7302 12.118C39.8515 12.09 40.0148 12.0387 40.2202 11.964L40.0382 12.944C39.7302 13.0747 39.3848 13.14 39.0022 13.14C37.8822 13.14 37.3222 12.5147 37.3222 11.264V2.78H38.4422ZM45.584 6V6.966H43.036V11.068C43.036 11.4133 43.134 11.67 43.33 11.838C43.526 12.006 43.778 12.09 44.086 12.09C44.3567 12.09 44.59 12.0433 44.786 11.95C44.982 11.8567 45.1594 11.7307 45.318 11.572L45.71 12.51C45.4954 12.706 45.2387 12.86 44.94 12.972C44.6507 13.084 44.3147 13.14 43.932 13.14C43.5774 13.14 43.246 13.0793 42.938 12.958C42.63 12.8273 42.3827 12.6267 42.196 12.356C42.0187 12.076 41.9254 11.712 41.916 11.264V6.966H40.516V6H41.916V4.32L43.036 4.012V6H45.584ZM51.3373 8.478C51.3373 7.95533 51.1973 7.554 50.9173 7.274C50.6373 6.98467 50.2406 6.84 49.7273 6.84C49.2419 6.84 48.8313 6.94733 48.4953 7.162C48.1593 7.36733 47.9119 7.70333 47.7533 8.17L46.8433 7.61C47.0299 7.08733 47.3753 6.66733 47.8793 6.35C48.3833 6.02333 49.0086 5.86 49.7553 5.86C50.2593 5.86 50.7166 5.94867 51.1273 6.126C51.5379 6.294 51.8599 6.55533 52.0933 6.91C52.3359 7.25533 52.4573 7.70333 52.4573 8.254V11.642C52.4573 11.978 52.6346 12.146 52.9893 12.146C53.1666 12.146 53.3393 12.1227 53.5073 12.076L53.4513 12.958C53.2646 13.0513 53.0219 13.098 52.7233 13.098C52.3779 13.098 52.0793 13.014 51.8273 12.846C51.5846 12.678 51.4259 12.4213 51.3513 12.076C51.1086 12.44 50.7773 12.7107 50.3573 12.888C49.9373 13.056 49.5219 13.14 49.1113 13.14C48.7006 13.14 48.3179 13.07 47.9633 12.93C47.6086 12.79 47.3239 12.58 47.1093 12.3C46.9039 12.0107 46.8013 11.656 46.8013 11.236C46.8013 10.7133 46.9739 10.284 47.3193 9.948C47.6739 9.60267 48.1639 9.36933 48.7893 9.248L51.3373 8.744V8.478ZM47.9493 11.18C47.9493 11.4693 48.0613 11.7073 48.2853 11.894C48.5186 12.0713 48.8453 12.16 49.2653 12.16C49.6293 12.16 49.9653 12.0993 50.2733 11.978C50.5906 11.8473 50.8473 11.656 51.0433 11.404C51.2393 11.1427 51.3373 10.8113 51.3373 10.41V9.668L49.3073 10.088C48.8499 10.1813 48.5093 10.312 48.2853 10.48C48.0613 10.648 47.9493 10.8813 47.9493 11.18ZM55.179 13V6H56.089L56.243 7.148C56.635 6.28933 57.3816 5.86 58.483 5.86C58.6043 5.86 58.735 5.86933 58.875 5.888C59.0243 5.90667 59.1503 5.944 59.253 6L59.057 7.022C58.9543 6.98467 58.8423 6.95667 58.721 6.938C58.5996 6.91933 58.427 6.91 58.203 6.91C57.9136 6.91 57.6196 6.994 57.321 7.162C57.0316 7.33 56.789 7.58667 56.593 7.932C56.397 8.268 56.299 8.69733 56.299 9.22V13H55.179Z" fill="#6699CC"/>
<path d="M20.4082 14.75H59.589V15.45H20.4082V14.75Z" fill="#6699CC"/>
<path d="M4.33333 8.66675L1 12.0001L4.33333 15.3334" stroke="#6699CC" stroke-linecap="round" stroke-linejoin="round"/>
<path d="M11.6667 4.66675V9.33341C11.6667 10.0407 11.3857 10.7189 10.8856 11.219C10.3855 11.7191 9.70724 12.0001 9 12.0001H1" stroke="#6699CC" stroke-linecap="round" stroke-linejoin="round"/>
</svg>
