<svg width="679" height="391" viewBox="0 0 679 391" fill="none" xmlns="http://www.w3.org/2000/svg">
<path d="M74.97 197H102.33V169.82H119.61V144.17H102.33V48.5H73.53L0.9 160.64V169.82H74.97V197ZM40.5 144.17L74.97 87.65V144.17H40.5ZM191.517 199.88C203.637 199.88 214.257 196.64 223.377 190.16C232.557 183.68 239.697 174.65 244.797 163.07C249.957 151.49 252.537 138.08 252.537 122.84C252.537 107.54 249.957 94.13 244.797 82.61C239.697 71.03 232.557 62 223.377 55.52C214.257 49.04 203.637 45.8 191.517 45.8C179.397 45.8 168.747 49.04 159.567 55.52C150.387 62 143.217 71.03 138.057 82.61C132.957 94.13 130.407 107.54 130.407 122.84C130.407 138.08 132.957 151.49 138.057 163.07C143.217 174.65 150.387 183.68 159.567 190.16C168.747 196.64 179.397 199.88 191.517 199.88ZM191.517 174.23C182.157 174.23 174.747 169.64 169.287 160.46C163.887 151.28 161.187 138.74 161.187 122.84C161.187 106.88 163.887 94.34 169.287 85.22C174.747 76.04 182.157 71.45 191.517 71.45C200.817 71.45 208.167 76.04 213.567 85.22C219.027 94.34 221.757 106.88 221.757 122.84C221.757 138.74 219.027 151.28 213.567 160.46C208.167 169.64 200.817 174.23 191.517 174.23ZM330.218 197H357.578V169.82H374.858V144.17H357.578V48.5H328.778L256.148 160.64V169.82H330.218V197ZM295.748 144.17L330.218 87.65V144.17H295.748Z" fill="#990099"/>
<g clip-path="url(#clip0)">
<path d="M641.205 293.175L628.924 256.086C628.924 256.086 642.432 269.604 642.432 280.696L640.008 255.046C640.008 255.046 646.935 264.405 646.243 278.617C645.55 292.828 641.205 293.175 641.205 293.175Z" fill="#E6E6E6"/>
<path d="M377.467 259.403L365.481 223.206C365.481 223.206 378.665 236.399 378.665 247.225L376.299 222.191C376.299 222.191 383.059 231.325 382.383 245.195C381.707 259.065 377.467 259.403 377.467 259.403Z" fill="#E6E6E6"/>
<path d="M564.547 276.107C564.568 299.919 517.375 292.594 459.6 292.644C401.826 292.694 355.347 300.099 355.326 276.288C355.306 252.476 402.481 247.257 460.256 247.207C518.03 247.157 564.527 252.296 564.547 276.107Z" fill="#E6E6E6"/>
<path d="M524.056 243.95H516.503L512.908 214.795H524.056V243.95Z" fill="#A0616A"/>
<path d="M510.269 241.79H525.675V250.969H501.936V250.129C501.936 247.917 502.814 245.796 504.377 244.232C505.939 242.669 508.059 241.79 510.269 241.79Z" fill="#2F2E41"/>
<path d="M579.575 286.981H572.022L568.427 257.826H579.575V286.981Z" fill="#A0616A"/>
<path d="M565.788 284.822H581.194V294H557.455V293.16C557.455 290.949 558.333 288.828 559.896 287.264C561.458 285.7 563.578 284.822 565.788 284.822Z" fill="#2F2E41"/>
<path d="M614.416 200.367C614.938 199.733 615.315 198.992 615.52 198.197C615.725 197.401 615.754 196.571 615.604 195.763C615.453 194.955 615.128 194.191 614.65 193.522C614.173 192.854 613.555 192.299 612.839 191.896L595.296 120.381L584.08 125.21L604.946 194.359C604.348 195.607 604.229 197.03 604.61 198.359C604.992 199.688 605.847 200.832 607.014 201.572C608.182 202.313 609.58 202.599 610.944 202.377C612.308 202.154 613.543 201.439 614.416 200.367Z" fill="#A0616A"/>
<path d="M600.733 55.8327C600.107 55.1777 599.345 54.6681 598.501 54.3397C597.657 54.0113 596.751 53.8721 595.847 53.932C594.944 53.9918 594.064 54.2492 593.27 54.6861C592.477 55.123 591.789 55.7286 591.254 56.4605L564.102 59.58L568.232 70.0608L592.926 65.4359C594.214 66.2527 595.757 66.5684 597.262 66.3231C598.767 66.0777 600.13 65.2884 601.092 64.1047C602.054 62.921 602.549 61.4251 602.483 59.9005C602.417 58.376 601.795 56.9286 600.733 55.8327Z" fill="#A0616A"/>
<path d="M555.987 192.95L567.836 281.94L582.583 278.901C582.583 278.901 580.414 214.092 587.788 206.279C595.161 198.466 578.304 184.779 578.304 184.779L555.987 192.95Z" fill="#2F2E41"/>
<path d="M560.886 168.438L555.443 176.609C555.443 176.609 513.531 159.179 513.531 186.958C513.531 214.738 511.133 233.59 510.266 234.892C509.398 236.194 520.301 239.573 525.506 238.705C525.506 238.705 531.927 193.92 531.494 191.316C531.494 191.316 572.607 211.488 580.414 209.752C588.221 208.016 590.066 201.869 591.367 198.397C592.668 194.925 590.823 167.349 590.823 167.349L564.799 159.402L560.886 168.438Z" fill="#2F2E41"/>
<path d="M561.621 119.382L560.069 117.519C560.069 117.519 542.693 78.3944 549.519 67.8369C556.346 57.2794 586.133 55.7268 587.064 56.3478C587.995 56.9689 584.841 65.0319 587.013 68.7581C587.013 68.7581 563.938 73.7646 562.386 74.3856C560.835 75.0066 574.342 97.9568 574.342 97.9568L572.791 111.93L561.621 119.382Z" fill="#CCCCCC"/>
<path d="M592.029 100.131C592.029 100.131 575.894 101.994 575.273 101.994C574.652 101.994 574.342 97.957 574.342 97.957L560.069 117.519C560.069 117.519 553.037 174.272 554.899 173.341C556.76 172.409 591.098 177.759 591.408 175.275C591.718 172.791 591.098 160.37 592.029 159.749C592.96 159.128 608.164 120.625 608.164 120.625C608.164 120.625 606.612 112.551 601.337 109.757C596.062 106.962 592.029 100.131 592.029 100.131Z" fill="#CCCCCC"/>
<path d="M603.199 115.346L608.163 120.624C608.163 120.624 615.54 181.282 611.506 183.145C607.472 185.008 599.531 184.779 599.531 184.779L591.718 156.023L603.199 115.346Z" fill="#CCCCCC"/>
<path d="M576.524 96.2892C584.411 96.2892 590.805 89.8903 590.805 81.9969C590.805 74.1035 584.411 67.7046 576.524 67.7046C568.636 67.7046 562.242 74.1035 562.242 81.9969C562.242 89.8903 568.636 96.2892 576.524 96.2892Z" fill="#A0616A"/>
<path d="M573.173 84.227C572.98 81.2614 569.241 81.1597 566.271 81.1317C563.302 81.1036 559.752 81.2097 558.071 78.7593C556.961 77.1399 557.173 74.8917 558.09 73.1555C559.008 71.4193 560.517 70.0839 562.001 68.7993C565.834 65.4827 569.784 62.1924 574.385 60.0696C578.987 57.9468 584.379 57.089 589.151 58.7931C595.013 60.8864 602.938 71.6621 603.622 77.8531C604.306 84.0441 601.834 90.3554 597.666 94.9817C593.499 99.608 583.96 97.7414 577.957 99.3872C581.606 94.2182 579.201 84.826 573.354 82.4122L573.173 84.227Z" fill="#2F2E41"/>
<path d="M411.736 268.676C427.565 279.068 448.827 274.651 459.226 258.811C469.626 242.971 465.224 221.705 449.396 211.313C433.567 200.921 412.304 205.338 401.905 221.179C391.505 237.019 395.907 258.285 411.736 268.676Z" fill="#990099"/>
<path d="M431.593 196.709C427.621 194.102 424.49 190.398 422.58 186.046C420.669 181.694 420.061 176.881 420.829 172.189L442.638 39.8377C443.361 35.4535 444.972 31.2629 447.373 27.5233C449.773 23.7837 452.913 20.5743 456.598 18.0922C460.284 15.6101 464.437 13.9078 468.803 13.09C473.169 12.2722 477.656 12.3561 481.987 13.3366C486.319 14.3171 490.403 16.1734 493.99 18.7915C497.577 21.4096 500.59 24.7341 502.844 28.5607C505.098 32.3873 506.546 36.6351 507.098 41.0431C507.65 45.4511 507.295 49.9261 506.055 54.193L468.614 183.006C467.542 186.693 465.621 190.078 463.005 192.889C460.389 195.7 457.151 197.859 453.551 199.191C449.951 200.524 446.089 200.994 442.275 200.563C438.462 200.132 434.803 198.812 431.593 196.709L431.593 196.709Z" fill="#990099"/>
</g>
<path d="M19.965 342.7C24.1083 342.7 27.3717 343.745 29.755 345.835C32.1383 347.888 33.33 350.748 33.33 354.415C33.33 358.118 32.1383 360.997 29.755 363.05C27.3717 365.103 24.1083 366.13 19.965 366.13H12.32V379H4.73V342.7H19.965ZM18.81 360.135C23.3567 360.135 25.63 358.228 25.63 354.415C25.63 350.602 23.3567 348.695 18.81 348.695H12.32V360.135H18.81ZM52.9916 361.455C52.9916 359.878 52.5333 358.65 51.6166 357.77C50.7366 356.89 49.5633 356.45 48.0966 356.45C46.74 356.45 45.5483 356.798 44.5216 357.495C43.495 358.192 42.7433 359.347 42.2666 360.96L35.8316 358.98C36.455 356.56 37.8116 354.617 39.9016 353.15C42.0283 351.683 44.87 350.95 48.4266 350.95C52.02 350.95 54.9166 351.812 57.1166 353.535C59.3533 355.222 60.4716 357.752 60.4716 361.125V372.29C60.4716 373.683 61.1316 374.38 62.4516 374.38C63.075 374.38 63.6616 374.288 64.2116 374.105L63.7716 378.78C62.8183 379.257 61.6266 379.495 60.1966 379.495C58.62 379.495 57.245 379.165 56.0716 378.505C54.935 377.845 54.165 376.855 53.7616 375.535C52.8816 376.855 51.6166 377.863 49.9666 378.56C48.3533 379.22 46.685 379.55 44.9616 379.55C42.175 379.55 39.9566 378.927 38.3066 377.68C36.6933 376.397 35.8866 374.545 35.8866 372.125C35.8866 370.072 36.5466 368.403 37.8666 367.12C39.1866 365.8 41.075 364.902 43.5316 364.425L52.9916 362.5V361.455ZM43.4216 371.41C43.4216 372.327 43.7516 373.023 44.4116 373.5C45.1083 373.977 45.9333 374.215 46.8866 374.215C47.95 374.215 48.94 374.05 49.8566 373.72C50.7733 373.39 51.525 372.84 52.1116 372.07C52.6983 371.263 52.9916 370.2 52.9916 368.88V367.175L47.2166 368.33C45.97 368.587 45.0166 368.935 44.3566 369.375C43.7333 369.778 43.4216 370.457 43.4216 371.41ZM48.7016 338.19H55.9616L50.4616 347.54H44.9066L48.7016 338.19ZM83.1948 373.83C86.1648 373.83 88.4565 374.472 90.0698 375.755C91.6831 377.038 92.4898 378.835 92.4898 381.145C92.4898 383.272 91.8848 385.05 90.6748 386.48C89.4648 387.91 87.7598 388.992 85.5598 389.725C83.3965 390.458 80.8848 390.825 78.0248 390.825C73.2948 390.825 69.8298 390.165 67.6298 388.845C65.4665 387.525 64.3848 385.802 64.3848 383.675C64.3848 382.428 64.7698 381.328 65.5398 380.375C66.3465 379.458 67.6298 378.817 69.3898 378.45C66.9331 377.533 65.7048 375.81 65.7048 373.28C65.7048 372.033 66.0715 370.933 66.8048 369.98C67.5748 369.027 68.6198 368.312 69.9398 367.835C67.0431 366.222 65.5948 363.71 65.5948 360.3C65.5948 357.403 66.7131 355.13 68.9498 353.48C71.1865 351.793 74.2481 350.95 78.1348 350.95C80.3348 350.95 82.3148 351.243 84.0748 351.83C84.3315 349.923 85.1015 348.31 86.3848 346.99C87.6681 345.633 89.4098 344.955 91.6098 344.955C91.6831 344.955 91.7748 344.955 91.8848 344.955C91.9948 344.955 92.1048 344.955 92.2148 344.955L93.0948 350.345C92.8015 350.308 92.4715 350.29 92.1048 350.29C90.7115 350.29 89.5931 350.565 88.7498 351.115C87.9065 351.628 87.3748 352.38 87.1548 353.37C89.5015 355.02 90.6748 357.33 90.6748 360.3C90.6748 363.16 89.5381 365.433 87.2648 367.12C85.0281 368.77 81.9848 369.595 78.1348 369.595C76.4481 369.595 74.9081 369.448 73.5148 369.155C72.6715 369.375 72.0665 369.705 71.6998 370.145C71.3698 370.548 71.2048 371.007 71.2048 371.52C71.2048 373.06 72.3781 373.83 74.7248 373.83H83.1948ZM78.1348 355.68C76.6681 355.68 75.4581 356.083 74.5048 356.89C73.5515 357.697 73.0748 358.815 73.0748 360.245C73.0748 361.675 73.5515 362.812 74.5048 363.655C75.4581 364.462 76.6681 364.865 78.1348 364.865C79.5648 364.865 80.7565 364.462 81.7098 363.655C82.6631 362.812 83.1398 361.675 83.1398 360.245C83.1398 358.815 82.6631 357.697 81.7098 356.89C80.7565 356.083 79.5648 355.68 78.1348 355.68ZM78.0798 385.655C80.9031 385.655 82.9931 385.307 84.3498 384.61C85.7431 383.95 86.4398 383.143 86.4398 382.19C86.4398 381.493 86.1648 380.925 85.6148 380.485C85.0648 380.082 84.0748 379.88 82.6448 379.88H73.3498C72.4698 379.88 71.7365 380.1 71.1498 380.54C70.5998 381.017 70.3248 381.622 70.3248 382.355C70.3248 383.382 71.0031 384.188 72.3598 384.775C73.7531 385.362 75.6598 385.655 78.0798 385.655ZM98.6404 347.54C95.5237 347.54 93.9654 346.202 93.9654 343.525C93.9654 340.812 95.5237 339.455 98.6404 339.455C101.757 339.455 103.315 340.812 103.315 343.525C103.315 346.202 101.757 347.54 98.6404 347.54ZM102.38 351.5V379H94.8454V351.5H102.38ZM108.168 379V351.5H114.933L115.208 356.67C116.051 354.763 117.279 353.333 118.893 352.38C120.543 351.427 122.431 350.95 124.558 350.95C127.418 350.95 129.783 351.793 131.653 353.48C133.523 355.13 134.458 357.623 134.458 360.96V379H126.923V363.105C126.923 360.758 126.446 359.145 125.493 358.265C124.576 357.348 123.403 356.89 121.973 356.89C120.946 356.89 119.938 357.147 118.948 357.66C117.994 358.137 117.206 358.925 116.583 360.025C115.996 361.125 115.703 362.592 115.703 364.425V379H108.168ZM155.696 361.455C155.696 359.878 155.237 358.65 154.321 357.77C153.441 356.89 152.267 356.45 150.801 356.45C149.444 356.45 148.252 356.798 147.226 357.495C146.199 358.192 145.447 359.347 144.971 360.96L138.536 358.98C139.159 356.56 140.516 354.617 142.606 353.15C144.732 351.683 147.574 350.95 151.131 350.95C154.724 350.95 157.621 351.812 159.821 353.535C162.057 355.222 163.176 357.752 163.176 361.125V372.29C163.176 373.683 163.836 374.38 165.156 374.38C165.779 374.38 166.366 374.288 166.916 374.105L166.476 378.78C165.522 379.257 164.331 379.495 162.901 379.495C161.324 379.495 159.949 379.165 158.776 378.505C157.639 377.845 156.869 376.855 156.466 375.535C155.586 376.855 154.321 377.863 152.671 378.56C151.057 379.22 149.389 379.55 147.666 379.55C144.879 379.55 142.661 378.927 141.011 377.68C139.397 376.397 138.591 374.545 138.591 372.125C138.591 370.072 139.251 368.403 140.571 367.12C141.891 365.8 143.779 364.902 146.236 364.425L155.696 362.5V361.455ZM146.126 371.41C146.126 372.327 146.456 373.023 147.116 373.5C147.812 373.977 148.637 374.215 149.591 374.215C150.654 374.215 151.644 374.05 152.561 373.72C153.477 373.39 154.229 372.84 154.816 372.07C155.402 371.263 155.696 370.2 155.696 368.88V367.175L149.921 368.33C148.674 368.587 147.721 368.935 147.061 369.375C146.437 369.778 146.126 370.457 146.126 371.41ZM183.262 379V351.5H190.027L190.302 356.67C191.145 354.763 192.374 353.333 193.987 352.38C195.637 351.427 197.525 350.95 199.652 350.95C202.512 350.95 204.877 351.793 206.747 353.48C208.617 355.13 209.552 357.623 209.552 360.96V379H202.017V363.105C202.017 360.758 201.54 359.145 200.587 358.265C199.67 357.348 198.497 356.89 197.067 356.89C196.04 356.89 195.032 357.147 194.042 357.66C193.089 358.137 192.3 358.925 191.677 360.025C191.09 361.125 190.797 362.592 190.797 364.425V379H183.262ZM230.79 361.455C230.79 359.878 230.332 358.65 229.415 357.77C228.535 356.89 227.362 356.45 225.895 356.45C224.538 356.45 223.347 356.798 222.32 357.495C221.293 358.192 220.542 359.347 220.065 360.96L213.63 358.98C214.253 356.56 215.61 354.617 217.7 353.15C219.827 351.683 222.668 350.95 226.225 350.95C229.818 350.95 232.715 351.812 234.915 353.535C237.152 355.222 238.27 357.752 238.27 361.125V372.29C238.27 373.683 238.93 374.38 240.25 374.38C240.873 374.38 241.46 374.288 242.01 374.105L241.57 378.78C240.617 379.257 239.425 379.495 237.995 379.495C236.418 379.495 235.043 379.165 233.87 378.505C232.733 377.845 231.963 376.855 231.56 375.535C230.68 376.855 229.415 377.863 227.765 378.56C226.152 379.22 224.483 379.55 222.76 379.55C219.973 379.55 217.755 378.927 216.105 377.68C214.492 376.397 213.685 374.545 213.685 372.125C213.685 370.072 214.345 368.403 215.665 367.12C216.985 365.8 218.873 364.902 221.33 364.425L230.79 362.5V361.455ZM221.22 371.41C221.22 372.327 221.55 373.023 222.21 373.5C222.907 373.977 223.732 374.215 224.685 374.215C225.748 374.215 226.738 374.05 227.655 373.72C228.572 373.39 229.323 372.84 229.91 372.07C230.497 371.263 230.79 370.2 230.79 368.88V367.175L225.015 368.33C223.768 368.587 222.815 368.935 222.155 369.375C221.532 369.778 221.22 370.457 221.22 371.41ZM236.84 339.51C236.693 342.26 236.033 344.332 234.86 345.725C233.687 347.082 232.165 347.76 230.295 347.76C229.268 347.76 228.388 347.595 227.655 347.265C226.958 346.935 226.335 346.55 225.785 346.11C225.235 345.67 224.703 345.285 224.19 344.955C223.713 344.588 223.2 344.405 222.65 344.405C221.953 344.405 221.422 344.698 221.055 345.285C220.725 345.835 220.487 346.66 220.34 347.76H215.72C215.867 345.01 216.527 342.957 217.7 341.6C218.91 340.207 220.523 339.51 222.54 339.51C223.567 339.51 224.428 339.693 225.125 340.06C225.822 340.39 226.427 340.775 226.94 341.215C227.453 341.655 227.948 342.04 228.425 342.37C228.902 342.7 229.397 342.865 229.91 342.865C230.607 342.865 231.12 342.59 231.45 342.04C231.817 341.453 232.092 340.61 232.275 339.51H236.84ZM256.929 350.95C259.679 350.95 262.118 351.518 264.244 352.655C266.371 353.792 268.021 355.423 269.194 357.55C270.404 359.677 271.009 362.243 271.009 365.25C271.009 368.257 270.404 370.823 269.194 372.95C268.021 375.077 266.371 376.708 264.244 377.845C262.118 378.982 259.679 379.55 256.929 379.55C254.143 379.55 251.686 378.982 249.559 377.845C247.469 376.708 245.819 375.077 244.609 372.95C243.436 370.823 242.849 368.257 242.849 365.25C242.849 362.243 243.436 359.677 244.609 357.55C245.819 355.423 247.469 353.792 249.559 352.655C251.686 351.518 254.143 350.95 256.929 350.95ZM256.929 356.56C254.876 356.56 253.263 357.293 252.089 358.76C250.953 360.19 250.384 362.353 250.384 365.25C250.384 368.147 250.953 370.328 252.089 371.795C253.263 373.225 254.876 373.94 256.929 373.94C258.946 373.94 260.523 373.225 261.659 371.795C262.833 370.328 263.419 368.147 263.419 365.25C263.419 362.353 262.833 360.19 261.659 358.76C260.523 357.293 258.946 356.56 256.929 356.56ZM302.486 379.55C298.159 379.55 294.694 378.303 292.091 375.81C289.487 373.28 288.186 369.76 288.186 365.25C288.186 362.243 288.772 359.677 289.946 357.55C291.119 355.423 292.751 353.792 294.841 352.655C296.967 351.518 299.387 350.95 302.101 350.95C304.887 350.95 307.252 351.518 309.196 352.655C311.139 353.755 312.624 355.277 313.651 357.22C314.677 359.127 315.191 361.308 315.191 363.765C315.191 364.498 315.172 365.195 315.136 365.855C315.099 366.515 315.044 367.102 314.971 367.615H295.556C295.849 369.742 296.582 371.337 297.756 372.4C298.966 373.427 300.524 373.94 302.431 373.94C304.044 373.94 305.346 373.628 306.336 373.005C307.326 372.382 308.096 371.52 308.646 370.42L314.641 372.73C313.761 374.893 312.221 376.58 310.021 377.79C307.821 378.963 305.309 379.55 302.486 379.55ZM302.046 356.505C298.489 356.505 296.344 358.467 295.611 362.39H307.986C307.766 360.483 307.142 359.035 306.116 358.045C305.126 357.018 303.769 356.505 302.046 356.505ZM319.376 379V351.5H326.141L326.416 356.67C327.26 354.763 328.488 353.333 330.101 352.38C331.751 351.427 333.64 350.95 335.766 350.95C338.626 350.95 340.991 351.793 342.861 353.48C344.731 355.13 345.666 357.623 345.666 360.96V379H338.131V363.105C338.131 360.758 337.655 359.145 336.701 358.265C335.785 357.348 334.611 356.89 333.181 356.89C332.155 356.89 331.146 357.147 330.156 357.66C329.203 358.137 328.415 358.925 327.791 360.025C327.205 361.125 326.911 362.592 326.911 364.425V379H319.376ZM363.714 350.95C367.381 350.95 370.222 351.738 372.239 353.315C374.292 354.892 375.649 356.798 376.309 359.035L369.269 361.565C368.536 358.228 366.721 356.56 363.824 356.56C361.734 356.56 360.102 357.293 358.929 358.76C357.792 360.227 357.224 362.408 357.224 365.305C357.224 368.238 357.811 370.42 358.984 371.85C360.194 373.243 361.826 373.94 363.879 373.94C367.069 373.94 368.976 372.308 369.599 369.045L376.419 371.245C375.796 373.702 374.402 375.7 372.239 377.24C370.112 378.78 367.344 379.55 363.934 379.55C361.074 379.55 358.562 378.982 356.399 377.845C354.272 376.708 352.622 375.077 351.449 372.95C350.276 370.823 349.689 368.257 349.689 365.25C349.689 362.243 350.276 359.677 351.449 357.55C352.659 355.423 354.309 353.792 356.399 352.655C358.526 351.518 360.964 350.95 363.714 350.95ZM392.614 350.95C395.364 350.95 397.802 351.518 399.929 352.655C402.056 353.792 403.706 355.423 404.879 357.55C406.089 359.677 406.694 362.243 406.694 365.25C406.694 368.257 406.089 370.823 404.879 372.95C403.706 375.077 402.056 376.708 399.929 377.845C397.802 378.982 395.364 379.55 392.614 379.55C389.827 379.55 387.371 378.982 385.244 377.845C383.154 376.708 381.504 375.077 380.294 372.95C379.121 370.823 378.534 368.257 378.534 365.25C378.534 362.243 379.121 359.677 380.294 357.55C381.504 355.423 383.154 353.792 385.244 352.655C387.371 351.518 389.827 350.95 392.614 350.95ZM392.614 356.56C390.561 356.56 388.947 357.293 387.774 358.76C386.637 360.19 386.069 362.353 386.069 365.25C386.069 368.147 386.637 370.328 387.774 371.795C388.947 373.225 390.561 373.94 392.614 373.94C394.631 373.94 396.207 373.225 397.344 371.795C398.517 370.328 399.104 368.147 399.104 365.25C399.104 362.353 398.517 360.19 397.344 358.76C396.207 357.293 394.631 356.56 392.614 356.56ZM410.799 379V351.5H417.564L417.839 356.67C418.682 354.763 419.911 353.333 421.524 352.38C423.174 351.427 425.062 350.95 427.189 350.95C430.049 350.95 432.414 351.793 434.284 353.48C436.154 355.13 437.089 357.623 437.089 360.96V379H429.554V363.105C429.554 360.758 429.077 359.145 428.124 358.265C427.207 357.348 426.034 356.89 424.604 356.89C423.577 356.89 422.569 357.147 421.579 357.66C420.626 358.137 419.837 358.925 419.214 360.025C418.627 361.125 418.334 362.592 418.334 364.425V379H410.799ZM460.972 351.5V357.11H452.172V370.035C452.172 371.355 452.502 372.327 453.162 372.95C453.858 373.537 454.793 373.83 455.967 373.83C456.92 373.83 457.727 373.702 458.387 373.445C459.083 373.152 459.707 372.767 460.257 372.29L461.467 377.295C460.55 377.992 459.432 378.542 458.112 378.945C456.828 379.348 455.453 379.55 453.987 379.55C451.237 379.55 448.982 378.927 447.222 377.68C445.498 376.397 444.637 374.252 444.637 371.245V357.11H439.577V351.5H444.637V345.175L452.172 343.085V351.5H460.972ZM463.87 379V351.5H470.415L470.91 356.89C471.606 355.02 472.651 353.572 474.045 352.545C475.475 351.482 477.271 350.95 479.435 350.95C480.718 350.95 481.708 351.152 482.405 351.555L481.525 357.88C481.158 357.77 480.7 357.678 480.15 357.605C479.636 357.495 478.958 357.44 478.115 357.44C476.978 357.44 475.896 357.715 474.87 358.265C473.88 358.778 473.055 359.585 472.395 360.685C471.735 361.748 471.405 363.105 471.405 364.755V379H463.87ZM500.064 361.455C500.064 359.878 499.606 358.65 498.689 357.77C497.809 356.89 496.636 356.45 495.169 356.45C493.813 356.45 492.621 356.798 491.594 357.495C490.568 358.192 489.816 359.347 489.339 360.96L482.904 358.98C483.528 356.56 484.884 354.617 486.974 353.15C489.101 351.683 491.943 350.95 495.499 350.95C499.093 350.95 501.989 351.812 504.189 353.535C506.426 355.222 507.544 357.752 507.544 361.125V372.29C507.544 373.683 508.204 374.38 509.524 374.38C510.148 374.38 510.734 374.288 511.284 374.105L510.844 378.78C509.891 379.257 508.699 379.495 507.269 379.495C505.693 379.495 504.318 379.165 503.144 378.505C502.008 377.845 501.238 376.855 500.834 375.535C499.954 376.855 498.689 377.863 497.039 378.56C495.426 379.22 493.758 379.55 492.034 379.55C489.248 379.55 487.029 378.927 485.379 377.68C483.766 376.397 482.959 374.545 482.959 372.125C482.959 370.072 483.619 368.403 484.939 367.12C486.259 365.8 488.148 364.902 490.604 364.425L500.064 362.5V361.455ZM490.494 371.41C490.494 372.327 490.824 373.023 491.484 373.5C492.181 373.977 493.006 374.215 493.959 374.215C495.023 374.215 496.013 374.05 496.929 373.72C497.846 373.39 498.598 372.84 499.184 372.07C499.771 371.263 500.064 370.2 500.064 368.88V367.175L494.289 368.33C493.043 368.587 492.089 368.935 491.429 369.375C490.806 369.778 490.494 370.457 490.494 371.41ZM524.059 379.55C521.786 379.55 519.751 378.982 517.954 377.845C516.194 376.708 514.801 375.095 513.774 373.005C512.784 370.878 512.289 368.312 512.289 365.305C512.289 362.262 512.821 359.677 513.884 357.55C514.947 355.387 516.377 353.755 518.174 352.655C520.007 351.518 522.061 350.95 524.334 350.95C526.314 350.95 528.019 351.427 529.449 352.38C530.879 353.333 531.961 354.598 532.694 356.175V339.455H540.229V379H533.464L533.134 373.665C532.364 375.498 531.172 376.947 529.559 378.01C527.946 379.037 526.112 379.55 524.059 379.55ZM526.259 373.775C528.202 373.775 529.761 373.023 530.934 371.52C532.107 369.98 532.694 367.817 532.694 365.03C532.694 362.39 532.107 360.355 530.934 358.925C529.797 357.458 528.276 356.725 526.369 356.725C524.316 356.725 522.702 357.458 521.529 358.925C520.392 360.355 519.824 362.463 519.824 365.25C519.824 368.037 520.392 370.163 521.529 371.63C522.666 373.06 524.242 373.775 526.259 373.775ZM561.621 361.455C561.621 359.878 561.163 358.65 560.246 357.77C559.366 356.89 558.193 356.45 556.726 356.45C555.37 356.45 554.178 356.798 553.151 357.495C552.125 358.192 551.373 359.347 550.896 360.96L544.461 358.98C545.085 356.56 546.441 354.617 548.531 353.15C550.658 351.683 553.5 350.95 557.056 350.95C560.65 350.95 563.546 351.812 565.746 353.535C567.983 355.222 569.101 357.752 569.101 361.125V372.29C569.101 373.683 569.761 374.38 571.081 374.38C571.705 374.38 572.291 374.288 572.841 374.105L572.401 378.78C571.448 379.257 570.256 379.495 568.826 379.495C567.25 379.495 565.875 379.165 564.701 378.505C563.565 377.845 562.795 376.855 562.391 375.535C561.511 376.855 560.246 377.863 558.596 378.56C556.983 379.22 555.315 379.55 553.591 379.55C550.805 379.55 548.586 378.927 546.936 377.68C545.323 376.397 544.516 374.545 544.516 372.125C544.516 370.072 545.176 368.403 546.496 367.12C547.816 365.8 549.705 364.902 552.161 364.425L561.621 362.5V361.455ZM552.051 371.41C552.051 372.327 552.381 373.023 553.041 373.5C553.738 373.977 554.563 374.215 555.516 374.215C556.58 374.215 557.57 374.05 558.486 373.72C559.403 373.39 560.155 372.84 560.741 372.07C561.328 371.263 561.621 370.2 561.621 368.88V367.175L555.846 368.33C554.6 368.587 553.646 368.935 552.986 369.375C552.363 369.778 552.051 370.457 552.051 371.41ZM583.303 342.7V355.9L582.368 367.285H576.318L575.383 355.9V342.7H583.303ZM579.343 371.025C580.773 371.025 581.91 371.41 582.753 372.18C583.597 372.95 584.018 373.977 584.018 375.26C584.018 376.58 583.597 377.625 582.753 378.395C581.91 379.128 580.773 379.495 579.343 379.495C577.913 379.495 576.777 379.128 575.933 378.395C575.09 377.625 574.668 376.58 574.668 375.26C574.668 373.977 575.09 372.95 575.933 372.18C576.777 371.41 577.913 371.025 579.343 371.025ZM608.036 350.95C609.502 350.95 610.657 351.353 611.501 352.16C612.381 352.967 612.821 354.048 612.821 355.405C612.821 356.798 612.381 357.898 611.501 358.705C610.657 359.475 609.502 359.86 608.036 359.86C606.532 359.86 605.359 359.475 604.516 358.705C603.672 357.898 603.251 356.798 603.251 355.405C603.251 354.048 603.672 352.967 604.516 352.16C605.359 351.353 606.532 350.95 608.036 350.95ZM608.036 370.585C609.502 370.585 610.657 370.988 611.501 371.795C612.381 372.602 612.821 373.683 612.821 375.04C612.821 376.433 612.381 377.533 611.501 378.34C610.657 379.11 609.502 379.495 608.036 379.495C606.532 379.495 605.359 379.11 604.516 378.34C603.672 377.533 603.251 376.433 603.251 375.04C603.251 373.683 603.672 372.602 604.516 371.795C605.359 370.988 606.532 370.585 608.036 370.585ZM630.08 338.19L633.82 341.875C630.52 344.882 628.155 348.145 626.725 351.665C625.332 355.148 624.635 359.2 624.635 363.82C624.635 368.477 625.332 372.565 626.725 376.085C628.155 379.568 630.52 382.813 633.82 385.82L630.08 389.505C626.01 386.462 622.912 382.795 620.785 378.505C618.695 374.215 617.65 369.32 617.65 363.82C617.65 358.32 618.695 353.443 620.785 349.19C622.912 344.9 626.01 341.233 630.08 338.19Z" fill="#2F2F2F"/>
<defs>
<clipPath id="clip0">
<rect width="430" height="294" fill="white" transform="translate(249)"/>
</clipPath>
</defs>
</svg>
