<svg width="419" height="267" viewBox="0 0 419 267" fill="none" xmlns="http://www.w3.org/2000/svg">
<g>
<rect x="251" y="15" width="7" height="3" fill="#C4C4C4"/>
<rect x="251" y="59" width="7" height="3" fill="#C4C4C4"/>
<rect x="320" y="59" width="7" height="3" fill="#C4C4C4"/>
<rect x="382" y="59" width="7" height="3" fill="#C4C4C4"/>
<rect x="382" y="15" width="7" height="3" fill="#C4C4C4"/>
<rect x="320" y="15" width="7" height="3" fill="#C4C4C4"/>
<rect x="238" y="25" width="3" height="7" fill="#C4C4C4"/>
<rect x="267" y="35" width="3" height="7" fill="#C4C4C4"/>
<rect x="307" y="35" width="3" height="7" fill="#C4C4C4"/>
<rect x="336" y="46" width="3" height="7" fill="#C4C4C4"/>
<rect x="336" y="24" width="3" height="7" fill="#C4C4C4"/>
<rect x="398" y="24" width="3" height="7" fill="#C4C4C4"/>
<rect x="369" y="35" width="3" height="7" fill="#C4C4C4"/>
<rect x="398" y="46" width="3" height="7" fill="#C4C4C4"/>
<rect x="238" y="46" width="3" height="7" fill="#C4C4C4"/>
<rect x="18" y="88" width="8" height="19" fill="#C4C4C4"/>
<rect x="27" y="107" width="8" height="19" fill="#C4C4C4"/>
<rect x="18" y="124" width="8" height="19" fill="#C4C4C4"/>
<rect x="60" y="124" width="8" height="19" fill="#C4C4C4"/>
<rect x="69" y="107" width="8" height="19" fill="#C4C4C4"/>
<rect x="101" y="88" width="8" height="19" fill="#C4C4C4"/>
<rect x="110" y="107" width="8" height="19" fill="#C4C4C4"/>
<rect x="142" y="124" width="8" height="19" fill="#C4C4C4"/>
<rect x="151" y="107" width="8" height="19" fill="#C4C4C4"/>
<rect x="142" y="88" width="8" height="19" fill="#C4C4C4"/>
<rect x="182" y="88" width="9" height="19" fill="#C4C4C4"/>
<rect x="182" y="125" width="9" height="17" fill="#C4C4C4"/>
<rect x="191" y="107" width="9" height="18" fill="#C4C4C4"/>
<rect x="101" y="124" width="8" height="19" fill="#C4C4C4"/>
<rect x="100" y="176" width="9" height="18" fill="#C4C4C4"/>
<rect x="110" y="194" width="8" height="17" fill="#C4C4C4"/>
<rect x="100" y="212" width="9" height="16" fill="#C4C4C4"/>
<rect x="109" y="229" width="9" height="17" fill="#C4C4C4"/>
<rect x="100" y="246" width="9" height="19" fill="#C4C4C4"/>
<rect x="142" y="246" width="9" height="19" fill="#C4C4C4"/>
<rect x="151" y="229" width="8" height="17" fill="#C4C4C4"/>
<rect x="142" y="212" width="8" height="17" fill="#C4C4C4"/>
<rect x="151" y="194" width="8" height="17" fill="#C4C4C4"/>
<rect x="142" y="177" width="8" height="17" fill="#C4C4C4"/>
<rect x="182" y="176" width="9" height="18" fill="#C4C4C4"/>
<rect x="236" y="146" width="17" height="8" fill="#C4C4C4"/>
<rect x="236" y="188" width="17" height="8" fill="#C4C4C4"/>
<rect x="254" y="237" width="17" height="9" fill="#C4C4C4"/>
<rect x="272" y="229" width="17" height="9" fill="#C4C4C4"/>
<rect x="326" y="229" width="17" height="9" fill="#C4C4C4"/>
<rect x="343" y="237" width="18" height="9" fill="#C4C4C4"/>
<rect x="361" y="229" width="17" height="8" fill="#C4C4C4"/>
<rect x="379" y="238" width="17" height="8" fill="#C4C4C4"/>
<rect x="397" y="229" width="19" height="8" fill="#C4C4C4"/>
<rect x="397" y="196" width="19" height="8" fill="#C4C4C4"/>
<rect x="379" y="188" width="17" height="8" fill="#C4C4C4"/>
<rect x="361" y="196" width="17" height="8" fill="#C4C4C4"/>
<rect x="343" y="188" width="18" height="8" fill="#C4C4C4"/>
<rect x="326" y="154" width="17" height="9" fill="#C4C4C4"/>
<rect x="343" y="146" width="18" height="8" fill="#C4C4C4"/>
<rect x="326" y="104" width="18" height="8" fill="#C4C4C4"/>
<rect x="343" y="112" width="18" height="9" fill="#C4C4C4"/>
<rect x="361" y="104" width="17" height="8" fill="#C4C4C4"/>
<rect x="379" y="112" width="17" height="9" fill="#C4C4C4"/>
<rect x="397" y="104" width="19" height="8" fill="#C4C4C4"/>
<rect x="361" y="154" width="18" height="9" fill="#C4C4C4"/>
<rect x="379" y="145" width="18" height="9" fill="#C4C4C4"/>
<rect x="397" y="154" width="19" height="9" fill="#C4C4C4"/>
<rect x="326" y="196" width="17" height="8" fill="#C4C4C4"/>
<rect x="236" y="229" width="17" height="9" fill="#C4C4C4"/>
<rect x="254" y="196" width="17" height="8" fill="#C4C4C4"/>
<rect x="272" y="188" width="17" height="8" fill="#C4C4C4"/>
<rect x="254" y="155" width="17" height="8" fill="#C4C4C4"/>
<rect x="271" y="146" width="18" height="8" fill="#C4C4C4"/>
<rect x="192" y="194" width="8" height="17" fill="#C4C4C4"/>
<rect x="182" y="212" width="9" height="17" fill="#C4C4C4"/>
<rect x="192" y="229" width="8" height="17" fill="#C4C4C4"/>
<rect x="182" y="247" width="9" height="18" fill="#C4C4C4"/>
<rect x="60" y="88" width="8" height="19" fill="#C4C4C4"/>
<path d="M241 35H238V42H241V35Z" stroke="#990099" stroke-width="1.5"/>
<path d="M372 35H369V42H372V35Z" stroke="#990099" stroke-width="1.5"/>
<path d="M310 35H307V42H310V35Z" stroke="#990099" stroke-width="1.5"/>
<path d="M241 46H238V53H241V46Z" stroke="#990099" stroke-width="1.5"/>
<path d="M372 46H369V53H372V46Z" stroke="#990099" stroke-width="1.5"/>
<path d="M310 46H307V53H310V46Z" stroke="#990099" stroke-width="1.5"/>
<path d="M270 46H267V53H270V46Z" stroke="#990099" stroke-width="1.5"/>
<path d="M401 46H398V53H401V46Z" stroke="#990099" stroke-width="1.5"/>
<path d="M339 46H336V53H339V46Z" stroke="#990099" stroke-width="1.5"/>
<path d="M270 35H267V42H270V35Z" stroke="#990099" stroke-width="1.5"/>
<path d="M401 35H398V42H401V35Z" stroke="#990099" stroke-width="1.5"/>
<path d="M339 35H336V42H339V35Z" stroke="#990099" stroke-width="1.5"/>
<path d="M270 24H267V31H270V24Z" stroke="#990099" stroke-width="1.5"/>
<path d="M401 24H398V31H401V24Z" stroke="#990099" stroke-width="1.5"/>
<path d="M339 24H336V31H339V24Z" stroke="#990099" stroke-width="1.5"/>
<path d="M182 266V176H200V266" stroke="#990099" stroke-width="1.5"/>
<path d="M142 211.5H159.5M159.5 229H142M142 246H159.5" stroke="#990099" stroke-width="1.5"/>
<path d="M182 125H200.5M191.5 87.5V141.5" stroke="#990099" stroke-width="1.5"/>
<path d="M118.5 107.5H100.5M118.5 125H100.5M109.5 88V142" stroke="#990099" stroke-width="1.5"/>
<path d="M141.5 107.5H159.5M159.5 125H141.5M150.5 88V141.5" stroke="#990099" stroke-width="1.5"/>
<path d="M182 107.5H200.5" stroke="#990099" stroke-width="1.5"/>
<path d="M416 104H326V121.5H416.311M416.5 145.5H326V163H416.311M416.5 187.5H326V204.5H416.5M416.5 229H326V246H416.311M235.5 229V246H289V229H235.5ZM235.5 187.5V204.5H289V187.5H235.5ZM235.5 145.5V163H289V145.5H235.5Z" stroke="#990099" stroke-width="1.5"/>
<path d="M141.5 265.5V176.5H159.5V266" stroke="#990099" stroke-width="1.5"/>
<path d="M215.5 87.5H1.5V231.5H55V266H417L416.5 1H215.5V87.5Z" stroke="#990099" stroke-width="2"/>
<path d="M215.5 75.5H291M416.5 75.5H356M356 1V75.5M356 75.5H291M291 75.5V1M100 266V176.5H118.5V266" stroke="#990099" stroke-width="1.5"/>
<path d="M18 88V142H35.6044V88" stroke="#990099" stroke-width="1.5"/>
<path d="M59.5 88V142H77.5V88" stroke="#990099" stroke-width="1.5"/>
<path d="M100.5 87.6806V142.5H118.5V87.6807" stroke="#990099" stroke-width="1.5"/>
<path d="M141.5 87.7793V142H159.5V87.9997" stroke="#990099" stroke-width="1.5"/>
<path d="M182 88V142H200.5V88" stroke="#990099" stroke-width="1.5"/>
<path d="M26.5 88.5V141.5M35 125H18M35 107.5H18" stroke="#990099" stroke-width="1.5"/>
<path d="M68.5 88V142M77.5 125H59.5M77.5 107.5H59.5" stroke="#990099" stroke-width="1.5"/>
<path d="M109.5 265V176.5M118 194H100.5M100.5 211.5H118M118 228.5H100.5M100.5 246H118" stroke="#990099" stroke-width="1.5"/>
<path d="M150.5 177V265.5M142 194H159.5" stroke="#990099" stroke-width="1.5"/>
<path d="M191.5 176.5V265.5M200 194H182.5M182.5 211.5H200M200 229H182.5M182.5 246.5H200" stroke="#990099" stroke-width="1.5"/>
<path d="M235.5 154.5H288.5M271 146V162.5M253.5 146V162.5" stroke="#990099" stroke-width="1.5"/>
<path d="M253.5 188V204.5M271.5 188V204.5M288.5 196H236" stroke="#990099" stroke-width="1.5"/>
<path d="M253.5 229.5V246M271.5 246V229.5M288.5 237.5H236" stroke="#990099" stroke-width="1.5"/>
<path d="M326.5 237.5H416.5M343 229.5V245.5M361 245.5V229.5M378.5 229.5V246.5M396.5 229.5V245.5M326.5 196H416.5M343 188V204.5M361 188V204.5M378.5 188V204.5M396.5 188V204.5M326.5 154H416.5M343 146V162.5M361 146V162.5M378.5 146V162.5M396.5 146V162.5M326.5 112H416.5M396.5 104.5V121.5M378.5 104V121.5M361 104V121.5M343 104V121.5" stroke="#990099" stroke-width="1.5"/>
<path d="M264 20.5H245V56H264V20.5Z" stroke="#990099" stroke-width="1.5"/>
<path d="M258 18H251V15H258V18Z" stroke="#990099" stroke-width="1.5"/>
<path d="M241 24.5H239H238V31.5H241V24.5Z" stroke="#990099" stroke-width="1.5"/>
<path d="M395 20.5H376V56H395V20.5Z" stroke="#990099" stroke-width="1.5"/>
<path d="M389 18H382V15H389V18Z" stroke="#990099" stroke-width="1.5"/>
<path d="M372 24.5H370H369V31.5H372V24.5Z" stroke="#990099" stroke-width="1.5"/>
<path d="M333 20.5H314V56H333V20.5Z" stroke="#990099" stroke-width="1.5"/>
<path d="M327 18H320V15H327V18Z" stroke="#990099" stroke-width="1.5"/>
<path d="M310 24.5H308H307V31.5H310V24.5Z" stroke="#990099" stroke-width="1.5"/>
<path d="M258 59H251V62H258V59Z" stroke="#990099" stroke-width="1.5"/>
<path d="M389 59H382V62H389V59Z" stroke="#990099" stroke-width="1.5"/>
<path d="M327 59H320V62H327V59Z" stroke="#990099" stroke-width="1.5"/>
<path d="M216.5 87.5H1.5V232H55V266H217V177L216.5 87.5Z" fill="#990099" fill-opacity="0.7"/>
<path d="M415.436 76H217V228.619V265H308.118H416L415.436 76Z" fill="#F1F1F1" fill-opacity="0.8"/>
<path d="M415.5 2H216.5V61.5V75H307H416L415.5 2Z" fill="#C4C4C4" fill-opacity="0.9"/>
<path d="M80.312 171.256C81.2133 171.256 82.008 171.104 82.696 170.8C83.3893 170.491 83.9307 170.045 84.32 169.464C84.7147 168.877 84.912 168.171 84.912 167.344C84.912 166.56 84.736 165.923 84.384 165.432C84.0373 164.936 83.56 164.52 82.952 164.184C82.344 163.843 81.6507 163.517 80.872 163.208C80.4773 163.053 80.112 162.901 79.776 162.752C79.4453 162.597 79.1813 162.408 78.984 162.184C78.7867 161.955 78.688 161.653 78.688 161.28C78.688 160.8 78.8667 160.379 79.224 160.016C79.5813 159.648 80.088 159.464 80.744 159.464C81.304 159.464 81.824 159.587 82.304 159.832C82.784 160.072 83.1733 160.349 83.472 160.664L84.384 159.072C84.1333 158.811 83.8133 158.565 83.424 158.336C83.04 158.107 82.6133 157.92 82.144 157.776C81.68 157.632 81.2 157.56 80.704 157.56C79.8987 157.56 79.192 157.736 78.584 158.088C77.976 158.44 77.5013 158.901 77.16 159.472C76.824 160.043 76.656 160.659 76.656 161.32C76.656 161.928 76.7947 162.445 77.072 162.872C77.3493 163.293 77.7013 163.648 78.128 163.936C78.56 164.219 79.0027 164.456 79.456 164.648C80.0907 164.909 80.648 165.157 81.128 165.392C81.608 165.621 81.9813 165.891 82.248 166.2C82.5147 166.504 82.648 166.901 82.648 167.392C82.648 168.027 82.4293 168.507 81.992 168.832C81.5547 169.152 81.0133 169.312 80.368 169.312C79.76 169.312 79.2187 169.197 78.744 168.968C78.2693 168.733 77.864 168.467 77.528 168.168C77.192 167.869 76.9253 167.619 76.728 167.416L75.624 169.112C75.7627 169.272 75.9653 169.472 76.232 169.712C76.4987 169.947 76.8267 170.184 77.216 170.424C77.6107 170.659 78.064 170.856 78.576 171.016C79.0933 171.176 79.672 171.256 80.312 171.256ZM87.8499 171H94.9459V169.16H89.9459V165.304H94.7539V163.464H89.9459V159.64H94.9459V157.8H87.8499V171ZM100.44 171H102.528V159.664H106.128V157.8H96.8481V159.664H100.44V171ZM113.797 171.256C114.72 171.256 115.584 171.08 116.389 170.728C117.194 170.376 117.901 169.888 118.509 169.264C119.117 168.635 119.592 167.907 119.933 167.08C120.28 166.248 120.453 165.357 120.453 164.408C120.453 163.453 120.28 162.563 119.933 161.736C119.592 160.909 119.117 160.184 118.509 159.56C117.901 158.931 117.194 158.44 116.389 158.088C115.584 157.736 114.72 157.56 113.797 157.56C112.874 157.56 112.01 157.736 111.205 158.088C110.4 158.44 109.693 158.931 109.085 159.56C108.477 160.184 108 160.909 107.653 161.736C107.312 162.563 107.141 163.453 107.141 164.408C107.141 165.357 107.312 166.248 107.653 167.08C108 167.907 108.477 168.635 109.085 169.264C109.693 169.888 110.4 170.376 111.205 170.728C112.01 171.08 112.874 171.256 113.797 171.256ZM113.797 169.24C112.96 169.24 112.21 169.029 111.549 168.608C110.888 168.187 110.365 167.613 109.981 166.888C109.597 166.157 109.405 165.331 109.405 164.408C109.405 163.485 109.597 162.661 109.981 161.936C110.365 161.205 110.888 160.629 111.549 160.208C112.21 159.787 112.96 159.576 113.797 159.576C114.64 159.576 115.392 159.787 116.053 160.208C116.714 160.629 117.237 161.205 117.621 161.936C118.005 162.661 118.197 163.485 118.197 164.408C118.197 165.331 118.005 166.157 117.621 166.888C117.237 167.613 116.714 168.187 116.053 168.608C115.392 169.029 114.64 169.24 113.797 169.24ZM123.412 171H125.508V165.816H126.444L130.396 171H133.052L128.708 165.584C129.695 165.381 130.468 164.936 131.028 164.248C131.594 163.56 131.876 162.709 131.876 161.696C131.876 160.469 131.484 159.515 130.7 158.832C129.916 158.144 128.858 157.8 127.524 157.8H123.412V171ZM125.508 164.056V159.48H126.908C127.788 159.48 128.471 159.68 128.956 160.08C129.447 160.48 129.692 161.037 129.692 161.752C129.692 162.472 129.447 163.037 128.956 163.448C128.466 163.853 127.783 164.056 126.908 164.056H125.508ZM139.813 171H141.909V157.8H138.109V159.856H139.813V171Z" fill="white"/>
<path d="M253.312 45.256C254.213 45.256 255.008 45.104 255.696 44.8C256.389 44.4907 256.931 44.0453 257.32 43.464C257.715 42.8773 257.912 42.1707 257.912 41.344C257.912 40.56 257.736 39.9227 257.384 39.432C257.037 38.936 256.56 38.52 255.952 38.184C255.344 37.8427 254.651 37.5173 253.872 37.208C253.477 37.0533 253.112 36.9013 252.776 36.752C252.445 36.5973 252.181 36.408 251.984 36.184C251.787 35.9547 251.688 35.6533 251.688 35.28C251.688 34.8 251.867 34.3787 252.224 34.016C252.581 33.648 253.088 33.464 253.744 33.464C254.304 33.464 254.824 33.5867 255.304 33.832C255.784 34.072 256.173 34.3493 256.472 34.664L257.384 33.072C257.133 32.8107 256.813 32.5653 256.424 32.336C256.04 32.1067 255.613 31.92 255.144 31.776C254.68 31.632 254.2 31.56 253.704 31.56C252.899 31.56 252.192 31.736 251.584 32.088C250.976 32.44 250.501 32.9013 250.16 33.472C249.824 34.0427 249.656 34.6587 249.656 35.32C249.656 35.928 249.795 36.4453 250.072 36.872C250.349 37.2933 250.701 37.648 251.128 37.936C251.56 38.2187 252.003 38.456 252.456 38.648C253.091 38.9093 253.648 39.1573 254.128 39.392C254.608 39.6213 254.981 39.8907 255.248 40.2C255.515 40.504 255.648 40.9013 255.648 41.392C255.648 42.0267 255.429 42.5067 254.992 42.832C254.555 43.152 254.013 43.312 253.368 43.312C252.76 43.312 252.219 43.1973 251.744 42.968C251.269 42.7333 250.864 42.4667 250.528 42.168C250.192 41.8693 249.925 41.6187 249.728 41.416L248.624 43.112C248.763 43.272 248.965 43.472 249.232 43.712C249.499 43.9467 249.827 44.184 250.216 44.424C250.611 44.6587 251.064 44.856 251.576 45.016C252.093 45.176 252.672 45.256 253.312 45.256ZM259.338 45H261.586L262.89 41.56H268.25L269.546 45H271.802L266.538 31.8H264.594L259.338 45ZM263.602 39.72L265.562 34.616L267.538 39.72H263.602ZM274.147 45H281.283V43.16H276.243V31.8H274.147V45ZM282.447 45H284.695L285.999 41.56H291.359L292.655 45H294.911L289.647 31.8H287.703L282.447 45ZM286.711 39.72L288.671 34.616L290.647 39.72H286.711ZM301.491 45H303.587V39.816H304.523L308.475 45H311.131L306.787 39.584C307.773 39.3813 308.547 38.936 309.107 38.248C309.672 37.56 309.955 36.7093 309.955 35.696C309.955 34.4693 309.563 33.5147 308.779 32.832C307.995 32.144 306.936 31.8 305.603 31.8H301.491V45ZM303.587 38.056V33.48H304.987C305.867 33.48 306.549 33.68 307.035 34.08C307.525 34.48 307.771 35.0373 307.771 35.752C307.771 36.472 307.525 37.0373 307.035 37.448C306.544 37.8533 305.861 38.056 304.987 38.056H303.587ZM313.241 45H320.337V43.16H315.337V39.304H320.145V37.464H315.337V33.64H320.337V31.8H313.241V45ZM328.295 45.256C331.537 45.256 333.159 43.6053 333.159 40.304V31.8H331.063V39.736C331.063 40.936 330.839 41.8133 330.391 42.368C329.948 42.9227 329.249 43.2 328.295 43.2C327.34 43.2 326.639 42.9227 326.191 42.368C325.748 41.8133 325.527 40.936 325.527 39.736V31.8H323.439V40.304C323.439 43.6053 325.057 45.256 328.295 45.256ZM336.803 45H338.899V35.32L345.091 45H347.187V31.8H345.091V41.488L338.899 31.8H336.803V45ZM351.037 45H353.133V31.8H351.037V45ZM362.735 45.256C363.657 45.256 364.521 45.08 365.327 44.728C366.132 44.376 366.839 43.888 367.447 43.264C368.055 42.6347 368.529 41.9067 368.871 41.08C369.217 40.248 369.391 39.3573 369.391 38.408C369.391 37.4533 369.217 36.5627 368.871 35.736C368.529 34.9093 368.055 34.184 367.447 33.56C366.839 32.9307 366.132 32.44 365.327 32.088C364.521 31.736 363.657 31.56 362.735 31.56C361.812 31.56 360.948 31.736 360.143 32.088C359.337 32.44 358.631 32.9307 358.023 33.56C357.415 34.184 356.937 34.9093 356.591 35.736C356.249 36.5627 356.079 37.4533 356.079 38.408C356.079 39.3573 356.249 40.248 356.591 41.08C356.937 41.9067 357.415 42.6347 358.023 43.264C358.631 43.888 359.337 44.376 360.143 44.728C360.948 45.08 361.812 45.256 362.735 45.256ZM362.735 43.24C361.897 43.24 361.148 43.0293 360.487 42.608C359.825 42.1867 359.303 41.6133 358.919 40.888C358.535 40.1573 358.343 39.3307 358.343 38.408C358.343 37.4853 358.535 36.6613 358.919 35.936C359.303 35.2053 359.825 34.6293 360.487 34.208C361.148 33.7867 361.897 33.576 362.735 33.576C363.577 33.576 364.329 33.7867 364.991 34.208C365.652 34.6293 366.175 35.2053 366.559 35.936C366.943 36.6613 367.135 37.4853 367.135 38.408C367.135 39.3307 366.943 40.1573 366.559 40.888C366.175 41.6133 365.652 42.1867 364.991 42.608C364.329 43.0293 363.577 43.24 362.735 43.24ZM364.367 30.208C364.815 30.208 365.284 30.04 365.775 29.704C366.265 29.368 366.649 28.928 366.927 28.384L365.911 27.488C365.767 27.8293 365.561 28.1173 365.295 28.352C365.028 28.5867 364.745 28.704 364.447 28.704C364.207 28.704 363.961 28.64 363.711 28.512C363.46 28.3787 363.196 28.2267 362.919 28.056C362.641 27.88 362.351 27.728 362.047 27.6C361.743 27.4667 361.42 27.4 361.079 27.4C360.545 27.4 360.057 27.576 359.615 27.928C359.177 28.28 358.825 28.712 358.559 29.224L359.575 30.12C359.708 29.8107 359.897 29.5333 360.143 29.288C360.393 29.0373 360.713 28.912 361.103 28.912C361.391 28.912 361.665 28.9787 361.927 29.112C362.193 29.24 362.455 29.3893 362.711 29.56C362.967 29.7307 363.231 29.8827 363.503 30.016C363.775 30.144 364.063 30.208 364.367 30.208ZM372.35 45H379.446V43.16H374.446V39.304H379.254V37.464H374.446V33.64H379.446V31.8H372.35V45ZM386.14 45.256C387.041 45.256 387.836 45.104 388.524 44.8C389.217 44.4907 389.759 44.0453 390.148 43.464C390.543 42.8773 390.74 42.1707 390.74 41.344C390.74 40.56 390.564 39.9227 390.212 39.432C389.865 38.936 389.388 38.52 388.78 38.184C388.172 37.8427 387.479 37.5173 386.7 37.208C386.305 37.0533 385.94 36.9013 385.604 36.752C385.273 36.5973 385.009 36.408 384.812 36.184C384.615 35.9547 384.516 35.6533 384.516 35.28C384.516 34.8 384.695 34.3787 385.052 34.016C385.409 33.648 385.916 33.464 386.572 33.464C387.132 33.464 387.652 33.5867 388.132 33.832C388.612 34.072 389.001 34.3493 389.3 34.664L390.212 33.072C389.961 32.8107 389.641 32.5653 389.252 32.336C388.868 32.1067 388.441 31.92 387.972 31.776C387.508 31.632 387.028 31.56 386.532 31.56C385.727 31.56 385.02 31.736 384.412 32.088C383.804 32.44 383.329 32.9013 382.988 33.472C382.652 34.0427 382.484 34.6587 382.484 35.32C382.484 35.928 382.623 36.4453 382.9 36.872C383.177 37.2933 383.529 37.648 383.956 37.936C384.388 38.2187 384.831 38.456 385.284 38.648C385.919 38.9093 386.476 39.1573 386.956 39.392C387.436 39.6213 387.809 39.8907 388.076 40.2C388.343 40.504 388.476 40.9013 388.476 41.392C388.476 42.0267 388.257 42.5067 387.82 42.832C387.383 43.152 386.841 43.312 386.196 43.312C385.588 43.312 385.047 43.1973 384.572 42.968C384.097 42.7333 383.692 42.4667 383.356 42.168C383.02 41.8693 382.753 41.6187 382.556 41.416L381.452 43.112C381.591 43.272 381.793 43.472 382.06 43.712C382.327 43.9467 382.655 44.184 383.044 44.424C383.439 44.6587 383.892 44.856 384.404 45.016C384.921 45.176 385.5 45.256 386.14 45.256Z" fill="#990099"/>
<path d="M287.312 169.256C288.213 169.256 289.008 169.104 289.696 168.8C290.389 168.491 290.931 168.045 291.32 167.464C291.715 166.877 291.912 166.171 291.912 165.344C291.912 164.56 291.736 163.923 291.384 163.432C291.037 162.936 290.56 162.52 289.952 162.184C289.344 161.843 288.651 161.517 287.872 161.208C287.477 161.053 287.112 160.901 286.776 160.752C286.445 160.597 286.181 160.408 285.984 160.184C285.787 159.955 285.688 159.653 285.688 159.28C285.688 158.8 285.867 158.379 286.224 158.016C286.581 157.648 287.088 157.464 287.744 157.464C288.304 157.464 288.824 157.587 289.304 157.832C289.784 158.072 290.173 158.349 290.472 158.664L291.384 157.072C291.133 156.811 290.813 156.565 290.424 156.336C290.04 156.107 289.613 155.92 289.144 155.776C288.68 155.632 288.2 155.56 287.704 155.56C286.899 155.56 286.192 155.736 285.584 156.088C284.976 156.44 284.501 156.901 284.16 157.472C283.824 158.043 283.656 158.659 283.656 159.32C283.656 159.928 283.795 160.445 284.072 160.872C284.349 161.293 284.701 161.648 285.128 161.936C285.56 162.219 286.003 162.456 286.456 162.648C287.091 162.909 287.648 163.157 288.128 163.392C288.608 163.621 288.981 163.891 289.248 164.2C289.515 164.504 289.648 164.901 289.648 165.392C289.648 166.027 289.429 166.507 288.992 166.832C288.555 167.152 288.013 167.312 287.368 167.312C286.76 167.312 286.219 167.197 285.744 166.968C285.269 166.733 284.864 166.467 284.528 166.168C284.192 165.869 283.925 165.619 283.728 165.416L282.624 167.112C282.763 167.272 282.965 167.472 283.232 167.712C283.499 167.947 283.827 168.184 284.216 168.424C284.611 168.659 285.064 168.856 285.576 169.016C286.093 169.176 286.672 169.256 287.312 169.256ZM294.85 169H301.946V167.16H296.946V163.304H301.754V161.464H296.946V157.64H301.946V155.8H294.85V169ZM307.44 169H309.528V157.664H313.128V155.8H303.848V157.664H307.44V169ZM320.797 169.256C321.72 169.256 322.584 169.08 323.389 168.728C324.194 168.376 324.901 167.888 325.509 167.264C326.117 166.635 326.592 165.907 326.933 165.08C327.28 164.248 327.453 163.357 327.453 162.408C327.453 161.453 327.28 160.563 326.933 159.736C326.592 158.909 326.117 158.184 325.509 157.56C324.901 156.931 324.194 156.44 323.389 156.088C322.584 155.736 321.72 155.56 320.797 155.56C319.874 155.56 319.01 155.736 318.205 156.088C317.4 156.44 316.693 156.931 316.085 157.56C315.477 158.184 315 158.909 314.653 159.736C314.312 160.563 314.141 161.453 314.141 162.408C314.141 163.357 314.312 164.248 314.653 165.08C315 165.907 315.477 166.635 316.085 167.264C316.693 167.888 317.4 168.376 318.205 168.728C319.01 169.08 319.874 169.256 320.797 169.256ZM320.797 167.24C319.96 167.24 319.21 167.029 318.549 166.608C317.888 166.187 317.365 165.613 316.981 164.888C316.597 164.157 316.405 163.331 316.405 162.408C316.405 161.485 316.597 160.661 316.981 159.936C317.365 159.205 317.888 158.629 318.549 158.208C319.21 157.787 319.96 157.576 320.797 157.576C321.64 157.576 322.392 157.787 323.053 158.208C323.714 158.629 324.237 159.205 324.621 159.936C325.005 160.661 325.197 161.485 325.197 162.408C325.197 163.331 325.005 164.157 324.621 164.888C324.237 165.613 323.714 166.187 323.053 166.608C322.392 167.029 321.64 167.24 320.797 167.24ZM330.412 169H332.508V163.816H333.444L337.396 169H340.052L335.708 163.584C336.695 163.381 337.468 162.936 338.028 162.248C338.594 161.56 338.876 160.709 338.876 159.696C338.876 158.469 338.484 157.515 337.7 156.832C336.916 156.144 335.858 155.8 334.524 155.8H330.412V169ZM332.508 162.056V157.48H333.908C334.788 157.48 335.471 157.68 335.956 158.08C336.447 158.48 336.692 159.037 336.692 159.752C336.692 160.472 336.447 161.037 335.956 161.448C335.466 161.853 334.783 162.056 333.908 162.056H332.508ZM345.165 169H354.981V167.112H349.077C350.143 166.312 351.039 165.589 351.765 164.944C352.49 164.293 353.071 163.691 353.509 163.136C353.946 162.576 354.261 162.04 354.453 161.528C354.645 161.011 354.741 160.485 354.741 159.952C354.741 159.109 354.535 158.357 354.125 157.696C353.719 157.029 353.165 156.507 352.461 156.128C351.757 155.744 350.957 155.552 350.061 155.552C349.25 155.552 348.514 155.717 347.853 156.048C347.197 156.379 346.647 156.845 346.205 157.448C345.762 158.045 345.458 158.744 345.293 159.544L347.085 160.328C347.271 159.437 347.621 158.736 348.133 158.224C348.645 157.707 349.247 157.448 349.941 157.448C350.421 157.448 350.85 157.563 351.229 157.792C351.613 158.021 351.917 158.331 352.141 158.72C352.365 159.104 352.477 159.533 352.477 160.008C352.477 160.44 352.354 160.899 352.109 161.384C351.863 161.864 351.458 162.411 350.893 163.024C350.333 163.632 349.583 164.339 348.645 165.144C347.711 165.944 346.551 166.88 345.165 167.952V169Z" fill="#990099"/>
</g>
<path opacity="0.3" d="M50.201 32H52.952L54.3275 19.652L58.643 31.349H60.3965L64.7015 19.652L66.0875 32H68.828L66.917 14.675H63.998L59.5145 26.4875L55.031 14.675H52.112L50.201 32ZM71.0314 32H73.9819L75.6934 27.485H82.7284L84.4294 32H87.3904L80.4814 14.675H77.9299L71.0314 32ZM76.6279 25.07L79.2004 18.371L81.7939 25.07H76.6279ZM90.468 32H93.219V25.112H95.865C96.992 25.112 97.9825 24.8985 98.8365 24.4715C99.6975 24.0375 100.37 23.425 100.853 22.634C101.336 21.836 101.577 20.8875 101.577 19.7885C101.577 18.6825 101.336 17.7515 100.853 16.9955C100.37 16.2325 99.6975 15.655 98.8365 15.263C97.9825 14.871 96.992 14.675 95.865 14.675H90.468V32ZM93.219 22.886V16.88H95.0565C96.0925 16.88 96.9605 17.1215 97.6605 17.6045C98.3605 18.0875 98.7105 18.84 98.7105 19.862C98.7105 20.877 98.3605 21.6365 97.6605 22.1405C96.9605 22.6375 96.0925 22.886 95.0565 22.886H93.219ZM101.814 32H104.764L106.476 27.485H113.511L115.212 32H118.173L111.264 14.675H108.712L101.814 32ZM107.41 25.07L109.983 18.371L112.576 25.07H107.41ZM126.808 32H131.26C132.492 32 133.636 31.783 134.693 31.349C135.757 30.908 136.685 30.2955 137.476 29.5115C138.274 28.7205 138.893 27.8 139.334 26.75C139.775 25.7 139.996 24.566 139.996 23.348C139.996 22.13 139.772 20.996 139.324 19.946C138.883 18.889 138.263 17.9685 137.465 17.1845C136.674 16.3935 135.75 15.7775 134.693 15.3365C133.636 14.8955 132.492 14.675 131.26 14.675H126.808V32ZM129.559 29.5325V17.1425H130.966C132.121 17.1425 133.157 17.4155 134.074 17.9615C134.991 18.5005 135.715 19.239 136.247 20.177C136.779 21.108 137.045 22.1615 137.045 23.3375C137.045 24.5135 136.779 25.5705 136.247 26.5085C135.715 27.4395 134.991 28.178 134.074 28.724C133.157 29.263 132.121 29.5325 130.966 29.5325H129.559ZM151.368 32.336C152.579 32.336 153.713 32.105 154.77 31.643C155.827 31.181 156.755 30.5405 157.553 29.7215C158.351 28.8955 158.974 27.94 159.422 26.855C159.877 25.763 160.104 24.594 160.104 23.348C160.104 22.095 159.877 20.926 159.422 19.841C158.974 18.756 158.351 17.804 157.553 16.985C156.755 16.159 155.827 15.515 154.77 15.053C153.713 14.591 152.579 14.36 151.368 14.36C150.157 14.36 149.023 14.591 147.966 15.053C146.909 15.515 145.982 16.159 145.184 16.985C144.386 17.804 143.759 18.756 143.304 19.841C142.856 20.926 142.632 22.095 142.632 23.348C142.632 24.594 142.856 25.763 143.304 26.855C143.759 27.94 144.386 28.8955 145.184 29.7215C145.982 30.5405 146.909 31.181 147.966 31.643C149.023 32.105 150.157 32.336 151.368 32.336ZM151.368 29.69C150.269 29.69 149.286 29.4135 148.418 28.8605C147.55 28.3075 146.864 27.555 146.36 26.603C145.856 25.644 145.604 24.559 145.604 23.348C145.604 22.137 145.856 21.0555 146.36 20.1035C146.864 19.1445 147.55 18.3885 148.418 17.8355C149.286 17.2825 150.269 17.006 151.368 17.006C152.474 17.006 153.461 17.2825 154.329 17.8355C155.197 18.3885 155.883 19.1445 156.387 20.1035C156.891 21.0555 157.143 22.137 157.143 23.348C157.143 24.559 156.891 25.644 156.387 26.603C155.883 27.555 155.197 28.3075 154.329 28.8605C153.461 29.4135 152.474 29.69 151.368 29.69ZM35.6916 56H45.0051V53.585H38.4426V48.524H44.7531V46.109H38.4426V41.09H45.0051V38.675H35.6916V56ZM53.7913 56.336C54.9743 56.336 56.0173 56.1365 56.9203 55.7375C57.8303 55.3315 58.5408 54.747 59.0518 53.984C59.5698 53.214 59.8288 52.2865 59.8288 51.2015C59.8288 50.1725 59.5978 49.336 59.1358 48.692C58.6808 48.041 58.0543 47.495 57.2563 47.054C56.4583 46.606 55.5483 46.179 54.5263 45.773C54.0083 45.57 53.5288 45.3705 53.0878 45.1745C52.6538 44.9715 52.3073 44.723 52.0483 44.429C51.7893 44.128 51.6598 43.7325 51.6598 43.2425C51.6598 42.6125 51.8943 42.0595 52.3633 41.5835C52.8323 41.1005 53.4973 40.859 54.3583 40.859C55.0933 40.859 55.7758 41.02 56.4058 41.342C57.0358 41.657 57.5468 42.021 57.9388 42.434L59.1358 40.3445C58.8068 40.0015 58.3868 39.6795 57.8758 39.3785C57.3718 39.0775 56.8118 38.8325 56.1958 38.6435C55.5868 38.4545 54.9568 38.36 54.3058 38.36C53.2488 38.36 52.3213 38.591 51.5233 39.053C50.7253 39.515 50.1023 40.1205 49.6543 40.8695C49.2133 41.6185 48.9928 42.427 48.9928 43.295C48.9928 44.093 49.1748 44.772 49.5388 45.332C49.9028 45.885 50.3648 46.3505 50.9248 46.7285C51.4918 47.0995 52.0728 47.411 52.6678 47.663C53.5008 48.006 54.2323 48.3315 54.8623 48.6395C55.4923 48.9405 55.9823 49.294 56.3323 49.7C56.6823 50.099 56.8573 50.6205 56.8573 51.2645C56.8573 52.0975 56.5703 52.7275 55.9963 53.1545C55.4223 53.5745 54.7118 53.7845 53.8648 53.7845C53.0668 53.7845 52.3563 53.634 51.7333 53.333C51.1103 53.025 50.5783 52.675 50.1373 52.283C49.6963 51.891 49.3463 51.562 49.0873 51.296L47.6383 53.522C47.8203 53.732 48.0863 53.9945 48.4363 54.3095C48.7863 54.6175 49.2168 54.929 49.7278 55.244C50.2458 55.552 50.8408 55.811 51.5128 56.021C52.1918 56.231 52.9513 56.336 53.7913 56.336ZM71.4023 56.336C72.4873 56.336 73.5058 56.1785 74.4578 55.8635C75.4168 55.5485 76.2358 55.1425 76.9148 54.6455L75.7073 52.3145C75.1823 52.7345 74.5593 53.06 73.8383 53.291C73.1173 53.522 72.3578 53.6375 71.5598 53.6375C70.2998 53.6375 69.1763 53.361 68.1893 52.808C67.2023 52.248 66.4253 51.4955 65.8583 50.5505C65.2913 49.5985 65.0078 48.531 65.0078 47.348C65.0078 46.165 65.2913 45.101 65.8583 44.156C66.4253 43.204 67.2023 42.4515 68.1893 41.8985C69.1763 41.3385 70.2998 41.0585 71.5598 41.0585C72.3578 41.0585 73.1173 41.174 73.8383 41.405C74.5593 41.636 75.1823 41.9615 75.7073 42.3815L76.9148 40.0505C76.2148 39.5395 75.3853 39.13 74.4263 38.822C73.4673 38.514 72.4523 38.36 71.3813 38.36C70.0793 38.36 68.8613 38.591 67.7273 39.053C66.6003 39.508 65.6063 40.145 64.7453 40.964C63.8913 41.783 63.2228 42.7385 62.7398 43.8305C62.2568 44.9155 62.0153 46.088 62.0153 47.348C62.0153 48.608 62.2568 49.784 62.7398 50.876C63.2228 51.961 63.8913 52.913 64.7453 53.732C65.6063 54.551 66.6038 55.1915 67.7378 55.6535C68.8718 56.1085 70.0933 56.336 71.4023 56.336ZM80.05 56H82.801V49.196H84.0295L89.2165 56H92.7025L87.001 48.8915C88.296 48.6255 89.311 48.041 90.046 47.138C90.788 46.235 91.159 45.1185 91.159 43.7885C91.159 42.1785 90.6445 40.9255 89.6155 40.0295C88.5865 39.1265 87.197 38.675 85.447 38.675H80.05V56ZM82.801 46.886V40.88H84.6385C85.7935 40.88 86.6895 41.1425 87.3265 41.6675C87.9705 42.1925 88.2925 42.924 88.2925 43.862C88.2925 44.807 87.9705 45.549 87.3265 46.088C86.6825 46.62 85.7865 46.886 84.6385 46.886H82.801ZM95.4719 56H98.2229V38.675H95.4719V56ZM105.147 56H107.888V41.1215H112.613V38.675H100.433V41.1215H105.147V56ZM123.355 56.336C124.566 56.336 125.7 56.105 126.757 55.643C127.814 55.181 128.741 54.5405 129.539 53.7215C130.337 52.8955 130.96 51.94 131.408 50.855C131.863 49.763 132.091 48.594 132.091 47.348C132.091 46.095 131.863 44.926 131.408 43.841C130.96 42.756 130.337 41.804 129.539 40.985C128.741 40.159 127.814 39.515 126.757 39.053C125.7 38.591 124.566 38.36 123.355 38.36C122.144 38.36 121.01 38.591 119.953 39.053C118.896 39.515 117.968 40.159 117.17 40.985C116.372 41.804 115.746 42.756 115.291 43.841C114.843 44.926 114.619 46.095 114.619 47.348C114.619 48.594 114.843 49.763 115.291 50.855C115.746 51.94 116.372 52.8955 117.17 53.7215C117.968 54.5405 118.896 55.181 119.953 55.643C121.01 56.105 122.144 56.336 123.355 56.336ZM123.355 53.69C122.256 53.69 121.272 53.4135 120.404 52.8605C119.536 52.3075 118.85 51.555 118.346 50.603C117.842 49.644 117.59 48.559 117.59 47.348C117.59 46.137 117.842 45.0555 118.346 44.1035C118.85 43.1445 119.536 42.3885 120.404 41.8355C121.272 41.2825 122.256 41.006 123.355 41.006C124.461 41.006 125.448 41.2825 126.316 41.8355C127.184 42.3885 127.87 43.1445 128.374 44.1035C128.878 45.0555 129.13 46.137 129.13 47.348C129.13 48.559 128.878 49.644 128.374 50.603C127.87 51.555 127.184 52.3075 126.316 52.8605C125.448 53.4135 124.461 53.69 123.355 53.69ZM122.987 37.436L126.232 33.467L124.405 32.1125L121.832 36.5225L122.987 37.436ZM135.975 56H138.726V49.196H139.954L145.141 56H148.627L142.926 48.8915C144.221 48.6255 145.236 48.041 145.971 47.138C146.713 46.235 147.084 45.1185 147.084 43.7885C147.084 42.1785 146.569 40.9255 145.54 40.0295C144.511 39.1265 143.122 38.675 141.372 38.675H135.975V56ZM138.726 46.886V40.88H140.563C141.718 40.88 142.614 41.1425 143.251 41.6675C143.895 42.1925 144.217 42.924 144.217 43.862C144.217 44.807 143.895 45.549 143.251 46.088C142.607 46.62 141.711 46.886 140.563 46.886H138.726ZM151.397 56H154.148V38.675H151.397V56ZM166.749 56.336C167.96 56.336 169.094 56.105 170.151 55.643C171.208 55.181 172.136 54.5405 172.934 53.7215C173.732 52.8955 174.355 51.94 174.803 50.855C175.258 49.763 175.485 48.594 175.485 47.348C175.485 46.095 175.258 44.926 174.803 43.841C174.355 42.756 173.732 41.804 172.934 40.985C172.136 40.159 171.208 39.515 170.151 39.053C169.094 38.591 167.96 38.36 166.749 38.36C165.538 38.36 164.404 38.591 163.347 39.053C162.29 39.515 161.363 40.159 160.565 40.985C159.767 41.804 159.14 42.756 158.685 43.841C158.237 44.926 158.013 46.095 158.013 47.348C158.013 48.594 158.237 49.763 158.685 50.855C159.14 51.94 159.767 52.8955 160.565 53.7215C161.363 54.5405 162.29 55.181 163.347 55.643C164.404 56.105 165.538 56.336 166.749 56.336ZM166.749 53.69C165.65 53.69 164.667 53.4135 163.799 52.8605C162.931 52.3075 162.245 51.555 161.741 50.603C161.237 49.644 160.985 48.559 160.985 47.348C160.985 46.137 161.237 45.0555 161.741 44.1035C162.245 43.1445 162.931 42.3885 163.799 41.8355C164.667 41.2825 165.65 41.006 166.749 41.006C167.855 41.006 168.842 41.2825 169.71 41.8355C170.578 42.3885 171.264 43.1445 171.768 44.1035C172.272 45.0555 172.524 46.137 172.524 47.348C172.524 48.559 172.272 49.644 171.768 50.603C171.264 51.555 170.578 52.3075 169.71 52.8605C168.842 53.4135 167.855 53.69 166.749 53.69Z" fill="#5A5A5A"/>
</svg>
