<svg width="419" height="267" viewBox="0 0 419 267" fill="none" xmlns="http://www.w3.org/2000/svg">
<rect x="251" y="15" width="7" height="3" fill="#C4C4C4"/>
<rect x="251" y="59" width="7" height="3" fill="#C4C4C4"/>
<rect x="320" y="59" width="7" height="3" fill="#C4C4C4"/>
<rect x="382" y="59" width="7" height="3" fill="#C4C4C4"/>
<rect x="382" y="15" width="7" height="3" fill="#C4C4C4"/>
<rect x="320" y="15" width="7" height="3" fill="#C4C4C4"/>
<rect x="238" y="25" width="3" height="7" fill="#C4C4C4"/>
<rect x="267" y="35" width="3" height="7" fill="#C4C4C4"/>
<rect x="307" y="35" width="3" height="7" fill="#C4C4C4"/>
<rect x="336" y="46" width="3" height="7" fill="#C4C4C4"/>
<rect x="336" y="24" width="3" height="7" fill="#C4C4C4"/>
<rect x="398" y="24" width="3" height="7" fill="#C4C4C4"/>
<rect x="369" y="35" width="3" height="7" fill="#C4C4C4"/>
<rect x="398" y="46" width="3" height="7" fill="#C4C4C4"/>
<rect x="238" y="46" width="3" height="7" fill="#C4C4C4"/>
<rect x="18" y="88" width="8" height="19" fill="#C4C4C4"/>
<rect x="27" y="107" width="8" height="19" fill="#C4C4C4"/>
<rect x="18" y="124" width="8" height="19" fill="#C4C4C4"/>
<rect x="60" y="124" width="8" height="19" fill="#C4C4C4"/>
<rect x="69" y="107" width="8" height="19" fill="#C4C4C4"/>
<rect x="101" y="88" width="8" height="19" fill="#C4C4C4"/>
<rect x="110" y="107" width="8" height="19" fill="#C4C4C4"/>
<rect x="142" y="124" width="8" height="19" fill="#C4C4C4"/>
<rect x="151" y="107" width="8" height="19" fill="#C4C4C4"/>
<rect x="142" y="88" width="8" height="19" fill="#C4C4C4"/>
<rect x="182" y="88" width="9" height="19" fill="#C4C4C4"/>
<rect x="182" y="125" width="9" height="17" fill="#C4C4C4"/>
<rect x="191" y="107" width="9" height="18" fill="#C4C4C4"/>
<rect x="101" y="124" width="8" height="19" fill="#C4C4C4"/>
<rect x="100" y="176" width="9" height="18" fill="#C4C4C4"/>
<rect x="110" y="194" width="8" height="17" fill="#C4C4C4"/>
<rect x="100" y="212" width="9" height="16" fill="#C4C4C4"/>
<rect x="109" y="229" width="9" height="17" fill="#C4C4C4"/>
<rect x="100" y="246" width="9" height="19" fill="#C4C4C4"/>
<rect x="142" y="246" width="9" height="19" fill="#C4C4C4"/>
<rect x="151" y="229" width="8" height="17" fill="#C4C4C4"/>
<rect x="142" y="212" width="8" height="17" fill="#C4C4C4"/>
<rect x="151" y="194" width="8" height="17" fill="#C4C4C4"/>
<rect x="142" y="177" width="8" height="17" fill="#C4C4C4"/>
<rect x="182" y="176" width="9" height="18" fill="#C4C4C4"/>
<rect x="236" y="146" width="17" height="8" fill="#C4C4C4"/>
<rect x="236" y="188" width="17" height="8" fill="#C4C4C4"/>
<rect x="254" y="237" width="17" height="9" fill="#C4C4C4"/>
<rect x="272" y="229" width="17" height="9" fill="#C4C4C4"/>
<rect x="326" y="229" width="17" height="9" fill="#C4C4C4"/>
<rect x="343" y="237" width="18" height="9" fill="#C4C4C4"/>
<rect x="361" y="229" width="17" height="8" fill="#C4C4C4"/>
<rect x="379" y="238" width="17" height="8" fill="#C4C4C4"/>
<rect x="397" y="229" width="19" height="8" fill="#C4C4C4"/>
<rect x="397" y="196" width="19" height="8" fill="#C4C4C4"/>
<rect x="379" y="188" width="17" height="8" fill="#C4C4C4"/>
<rect x="361" y="196" width="17" height="8" fill="#C4C4C4"/>
<rect x="343" y="188" width="18" height="8" fill="#C4C4C4"/>
<rect x="326" y="154" width="17" height="9" fill="#C4C4C4"/>
<rect x="343" y="146" width="18" height="8" fill="#C4C4C4"/>
<rect x="326" y="104" width="18" height="8" fill="#C4C4C4"/>
<rect x="343" y="112" width="18" height="9" fill="#C4C4C4"/>
<rect x="361" y="104" width="17" height="8" fill="#C4C4C4"/>
<rect x="379" y="112" width="17" height="9" fill="#C4C4C4"/>
<rect x="397" y="104" width="19" height="8" fill="#C4C4C4"/>
<rect x="361" y="154" width="18" height="9" fill="#C4C4C4"/>
<rect x="379" y="145" width="18" height="9" fill="#C4C4C4"/>
<rect x="397" y="154" width="19" height="9" fill="#C4C4C4"/>
<rect x="326" y="196" width="17" height="8" fill="#C4C4C4"/>
<rect x="236" y="229" width="17" height="9" fill="#C4C4C4"/>
<rect x="254" y="196" width="17" height="8" fill="#C4C4C4"/>
<rect x="272" y="188" width="17" height="8" fill="#C4C4C4"/>
<rect x="254" y="155" width="17" height="8" fill="#C4C4C4"/>
<rect x="271" y="146" width="18" height="8" fill="#C4C4C4"/>
<rect x="192" y="194" width="8" height="17" fill="#C4C4C4"/>
<rect x="182" y="212" width="9" height="17" fill="#C4C4C4"/>
<rect x="192" y="229" width="8" height="17" fill="#C4C4C4"/>
<rect x="182" y="247" width="9" height="18" fill="#C4C4C4"/>
<rect x="60" y="88" width="8" height="19" fill="#C4C4C4"/>
<path d="M241 35H238V42H241V35Z" stroke="#990099" stroke-width="1.5"/>
<path d="M372 35H369V42H372V35Z" stroke="#990099" stroke-width="1.5"/>
<path d="M310 35H307V42H310V35Z" stroke="#990099" stroke-width="1.5"/>
<path d="M241 46H238V53H241V46Z" stroke="#990099" stroke-width="1.5"/>
<path d="M372 46H369V53H372V46Z" stroke="#990099" stroke-width="1.5"/>
<path d="M310 46H307V53H310V46Z" stroke="#990099" stroke-width="1.5"/>
<path d="M270 46H267V53H270V46Z" stroke="#990099" stroke-width="1.5"/>
<path d="M401 46H398V53H401V46Z" stroke="#990099" stroke-width="1.5"/>
<path d="M339 46H336V53H339V46Z" stroke="#990099" stroke-width="1.5"/>
<path d="M270 35H267V42H270V35Z" stroke="#990099" stroke-width="1.5"/>
<path d="M401 35H398V42H401V35Z" stroke="#990099" stroke-width="1.5"/>
<path d="M339 35H336V42H339V35Z" stroke="#990099" stroke-width="1.5"/>
<path d="M270 24H267V31H270V24Z" stroke="#990099" stroke-width="1.5"/>
<path d="M401 24H398V31H401V24Z" stroke="#990099" stroke-width="1.5"/>
<path d="M339 24H336V31H339V24Z" stroke="#990099" stroke-width="1.5"/>
<path d="M182 266V176H200V266" stroke="#990099" stroke-width="1.5"/>
<path d="M142 211.5H159.5M159.5 229H142M142 246H159.5" stroke="#990099" stroke-width="1.5"/>
<path d="M182 125H200.5M191.5 87.5V141.5" stroke="#990099" stroke-width="1.5"/>
<path d="M118.5 107.5H100.5M118.5 125H100.5M109.5 88V142" stroke="#990099" stroke-width="1.5"/>
<path d="M141.5 107.5H159.5M159.5 125H141.5M150.5 88V141.5" stroke="#990099" stroke-width="1.5"/>
<path d="M182 107.5H200.5" stroke="#990099" stroke-width="1.5"/>
<path d="M416 104H326V121.5H416.311M416.5 145.5H326V163H416.311M416.5 187.5H326V204.5H416.5M416.5 229H326V246H416.311M235.5 229V246H289V229H235.5ZM235.5 187.5V204.5H289V187.5H235.5ZM235.5 145.5V163H289V145.5H235.5Z" stroke="#990099" stroke-width="1.5"/>
<path d="M141.5 265.5V176.5H159.5V266" stroke="#990099" stroke-width="1.5"/>
<path d="M215.5 87.5H1.5V231.5H55V266H417L416.5 1H215.5V87.5Z" stroke="#990099" stroke-width="2"/>
<path d="M215.5 75.5H291M416.5 75.5H356M356 1V75.5M356 75.5H291M291 75.5V1M100 266V176.5H118.5V266" stroke="#990099" stroke-width="1.5"/>
<path d="M18 88V142H35.6044V88" stroke="#990099" stroke-width="1.5"/>
<path d="M59.5 88V142H77.5V88" stroke="#990099" stroke-width="1.5"/>
<path d="M100.5 87.6803V142.5H118.5V87.6804" stroke="#990099" stroke-width="1.5"/>
<path d="M141.5 87.7796V142H159.5V88" stroke="#990099" stroke-width="1.5"/>
<path d="M182 88V142H200.5V88" stroke="#990099" stroke-width="1.5"/>
<path d="M26.5 88.5V141.5M35 125H18M35 107.5H18" stroke="#990099" stroke-width="1.5"/>
<path d="M68.5 88V142M77.5 125H59.5M77.5 107.5H59.5" stroke="#990099" stroke-width="1.5"/>
<path d="M109.5 265V176.5M118 194H100.5M100.5 211.5H118M118 228.5H100.5M100.5 246H118" stroke="#990099" stroke-width="1.5"/>
<path d="M150.5 177V265.5M142 194H159.5" stroke="#990099" stroke-width="1.5"/>
<path d="M191.5 176.5V265.5M200 194H182.5M182.5 211.5H200M200 229H182.5M182.5 246.5H200" stroke="#990099" stroke-width="1.5"/>
<path d="M235.5 154.5H288.5M271 146V162.5M253.5 146V162.5" stroke="#990099" stroke-width="1.5"/>
<path d="M253.5 188V204.5M271.5 188V204.5M288.5 196H236" stroke="#990099" stroke-width="1.5"/>
<path d="M253.5 229.5V246M271.5 246V229.5M288.5 237.5H236" stroke="#990099" stroke-width="1.5"/>
<path d="M326.5 237.5H416.5M343 229.5V245.5M361 245.5V229.5M378.5 229.5V246.5M396.5 229.5V245.5M326.5 196H416.5M343 188V204.5M361 188V204.5M378.5 188V204.5M396.5 188V204.5M326.5 154H416.5M343 146V162.5M361 146V162.5M378.5 146V162.5M396.5 146V162.5M326.5 112H416.5M396.5 104.5V121.5M378.5 104V121.5M361 104V121.5M343 104V121.5" stroke="#990099" stroke-width="1.5"/>
<path d="M264 20.5H245V56H264V20.5Z" stroke="#990099" stroke-width="1.5"/>
<path d="M258 18H251V15H258V18Z" stroke="#990099" stroke-width="1.5"/>
<path d="M241 24.5H239H238V31.5H241V24.5Z" stroke="#990099" stroke-width="1.5"/>
<path d="M395 20.5H376V56H395V20.5Z" stroke="#990099" stroke-width="1.5"/>
<path d="M389 18H382V15H389V18Z" stroke="#990099" stroke-width="1.5"/>
<path d="M372 24.5H370H369V31.5H372V24.5Z" stroke="#990099" stroke-width="1.5"/>
<path d="M333 20.5H314V56H333V20.5Z" stroke="#990099" stroke-width="1.5"/>
<path d="M327 18H320V15H327V18Z" stroke="#990099" stroke-width="1.5"/>
<path d="M310 24.5H308H307V31.5H310V24.5Z" stroke="#990099" stroke-width="1.5"/>
<path d="M258 59H251V62H258V59Z" stroke="#990099" stroke-width="1.5"/>
<path d="M389 59H382V62H389V59Z" stroke="#990099" stroke-width="1.5"/>
<path d="M327 59H320V62H327V59Z" stroke="#990099" stroke-width="1.5"/>
<path d="M119.5 87.5H1.5V232H55V266H119.5V87.5Z" fill="#990099" fill-opacity="0.7"/>
<path d="M315 76H216.5V229.256L216.5 265H260.5H315V76Z" fill="#990099" fill-opacity="0.7"/>
<path d="M415.714 76H315V228.619V265H361.246H416L415.714 76Z" fill="#F1F1F1" fill-opacity="0.8"/>
<path d="M415.5 2H216.5V61.5V75H307H416L415.5 2Z" fill="#C4C4C4" fill-opacity="0.9"/>
<path d="M216.5 88.5L119.293 88.5001L119.293 265H216.5V88.5Z" fill="#F1F1F1" fill-opacity="0.8"/>
<path d="M32.312 171.256C33.2133 171.256 34.008 171.104 34.696 170.8C35.3893 170.491 35.9307 170.045 36.32 169.464C36.7147 168.877 36.912 168.171 36.912 167.344C36.912 166.56 36.736 165.923 36.384 165.432C36.0373 164.936 35.56 164.52 34.952 164.184C34.344 163.843 33.6507 163.517 32.872 163.208C32.4773 163.053 32.112 162.901 31.776 162.752C31.4453 162.597 31.1813 162.408 30.984 162.184C30.7867 161.955 30.688 161.653 30.688 161.28C30.688 160.8 30.8667 160.379 31.224 160.016C31.5813 159.648 32.088 159.464 32.744 159.464C33.304 159.464 33.824 159.587 34.304 159.832C34.784 160.072 35.1733 160.349 35.472 160.664L36.384 159.072C36.1333 158.811 35.8133 158.565 35.424 158.336C35.04 158.107 34.6133 157.92 34.144 157.776C33.68 157.632 33.2 157.56 32.704 157.56C31.8987 157.56 31.192 157.736 30.584 158.088C29.976 158.44 29.5013 158.901 29.16 159.472C28.824 160.043 28.656 160.659 28.656 161.32C28.656 161.928 28.7947 162.445 29.072 162.872C29.3493 163.293 29.7013 163.648 30.128 163.936C30.56 164.219 31.0027 164.456 31.456 164.648C32.0907 164.909 32.648 165.157 33.128 165.392C33.608 165.621 33.9813 165.891 34.248 166.2C34.5147 166.504 34.648 166.901 34.648 167.392C34.648 168.027 34.4293 168.507 33.992 168.832C33.5547 169.152 33.0133 169.312 32.368 169.312C31.76 169.312 31.2187 169.197 30.744 168.968C30.2693 168.733 29.864 168.467 29.528 168.168C29.192 167.869 28.9253 167.619 28.728 167.416L27.624 169.112C27.7627 169.272 27.9653 169.472 28.232 169.712C28.4987 169.947 28.8267 170.184 29.216 170.424C29.6107 170.659 30.064 170.856 30.576 171.016C31.0933 171.176 31.672 171.256 32.312 171.256ZM39.8499 171H46.9459V169.16H41.9459V165.304H46.7539V163.464H41.9459V159.64H46.9459V157.8H39.8499V171ZM52.4401 171H54.5281V159.664H58.1281V157.8H48.8481V159.664H52.4401V171ZM65.797 171.256C66.7197 171.256 67.5837 171.08 68.389 170.728C69.1943 170.376 69.901 169.888 70.509 169.264C71.117 168.635 71.5917 167.907 71.933 167.08C72.2797 166.248 72.453 165.357 72.453 164.408C72.453 163.453 72.2797 162.563 71.933 161.736C71.5917 160.909 71.117 160.184 70.509 159.56C69.901 158.931 69.1943 158.44 68.389 158.088C67.5837 157.736 66.7197 157.56 65.797 157.56C64.8743 157.56 64.0103 157.736 63.205 158.088C62.3997 158.44 61.693 158.931 61.085 159.56C60.477 160.184 59.9997 160.909 59.653 161.736C59.3117 162.563 59.141 163.453 59.141 164.408C59.141 165.357 59.3117 166.248 59.653 167.08C59.9997 167.907 60.477 168.635 61.085 169.264C61.693 169.888 62.3997 170.376 63.205 170.728C64.0103 171.08 64.8743 171.256 65.797 171.256ZM65.797 169.24C64.9597 169.24 64.2103 169.029 63.549 168.608C62.8877 168.187 62.365 167.613 61.981 166.888C61.597 166.157 61.405 165.331 61.405 164.408C61.405 163.485 61.597 162.661 61.981 161.936C62.365 161.205 62.8877 160.629 63.549 160.208C64.2103 159.787 64.9597 159.576 65.797 159.576C66.6397 159.576 67.3917 159.787 68.053 160.208C68.7143 160.629 69.237 161.205 69.621 161.936C70.005 162.661 70.197 163.485 70.197 164.408C70.197 165.331 70.005 166.157 69.621 166.888C69.237 167.613 68.7143 168.187 68.053 168.608C67.3917 169.029 66.6397 169.24 65.797 169.24ZM75.4124 171H77.5084V165.816H78.4444L82.3964 171H85.0524L80.7084 165.584C81.695 165.381 82.4684 164.936 83.0284 164.248C83.5937 163.56 83.8764 162.709 83.8764 161.696C83.8764 160.469 83.4844 159.515 82.7004 158.832C81.9164 158.144 80.8577 157.8 79.5244 157.8H75.4124V171ZM77.5084 164.056V159.48H78.9084C79.7884 159.48 80.471 159.68 80.9564 160.08C81.447 160.48 81.6924 161.037 81.6924 161.752C81.6924 162.472 81.447 163.037 80.9564 163.448C80.4657 163.853 79.783 164.056 78.9084 164.056H77.5084ZM91.8128 171H93.9088V157.8H90.1088V159.856H91.8128V171Z" fill="white"/>
<path d="M233.312 171.256C234.213 171.256 235.008 171.104 235.696 170.8C236.389 170.491 236.931 170.045 237.32 169.464C237.715 168.877 237.912 168.171 237.912 167.344C237.912 166.56 237.736 165.923 237.384 165.432C237.037 164.936 236.56 164.52 235.952 164.184C235.344 163.843 234.651 163.517 233.872 163.208C233.477 163.053 233.112 162.901 232.776 162.752C232.445 162.597 232.181 162.408 231.984 162.184C231.787 161.955 231.688 161.653 231.688 161.28C231.688 160.8 231.867 160.379 232.224 160.016C232.581 159.648 233.088 159.464 233.744 159.464C234.304 159.464 234.824 159.587 235.304 159.832C235.784 160.072 236.173 160.349 236.472 160.664L237.384 159.072C237.133 158.811 236.813 158.565 236.424 158.336C236.04 158.107 235.613 157.92 235.144 157.776C234.68 157.632 234.2 157.56 233.704 157.56C232.899 157.56 232.192 157.736 231.584 158.088C230.976 158.44 230.501 158.901 230.16 159.472C229.824 160.043 229.656 160.659 229.656 161.32C229.656 161.928 229.795 162.445 230.072 162.872C230.349 163.293 230.701 163.648 231.128 163.936C231.56 164.219 232.003 164.456 232.456 164.648C233.091 164.909 233.648 165.157 234.128 165.392C234.608 165.621 234.981 165.891 235.248 166.2C235.515 166.504 235.648 166.901 235.648 167.392C235.648 168.027 235.429 168.507 234.992 168.832C234.555 169.152 234.013 169.312 233.368 169.312C232.76 169.312 232.219 169.197 231.744 168.968C231.269 168.733 230.864 168.467 230.528 168.168C230.192 167.869 229.925 167.619 229.728 167.416L228.624 169.112C228.763 169.272 228.965 169.472 229.232 169.712C229.499 169.947 229.827 170.184 230.216 170.424C230.611 170.659 231.064 170.856 231.576 171.016C232.093 171.176 232.672 171.256 233.312 171.256ZM240.85 171H247.946V169.16H242.946V165.304H247.754V163.464H242.946V159.64H247.946V157.8H240.85V171ZM253.44 171H255.528V159.664H259.128V157.8H249.848V159.664H253.44V171ZM266.797 171.256C267.72 171.256 268.584 171.08 269.389 170.728C270.194 170.376 270.901 169.888 271.509 169.264C272.117 168.635 272.592 167.907 272.933 167.08C273.28 166.248 273.453 165.357 273.453 164.408C273.453 163.453 273.28 162.563 272.933 161.736C272.592 160.909 272.117 160.184 271.509 159.56C270.901 158.931 270.194 158.44 269.389 158.088C268.584 157.736 267.72 157.56 266.797 157.56C265.874 157.56 265.01 157.736 264.205 158.088C263.4 158.44 262.693 158.931 262.085 159.56C261.477 160.184 261 160.909 260.653 161.736C260.312 162.563 260.141 163.453 260.141 164.408C260.141 165.357 260.312 166.248 260.653 167.08C261 167.907 261.477 168.635 262.085 169.264C262.693 169.888 263.4 170.376 264.205 170.728C265.01 171.08 265.874 171.256 266.797 171.256ZM266.797 169.24C265.96 169.24 265.21 169.029 264.549 168.608C263.888 168.187 263.365 167.613 262.981 166.888C262.597 166.157 262.405 165.331 262.405 164.408C262.405 163.485 262.597 162.661 262.981 161.936C263.365 161.205 263.888 160.629 264.549 160.208C265.21 159.787 265.96 159.576 266.797 159.576C267.64 159.576 268.392 159.787 269.053 160.208C269.714 160.629 270.237 161.205 270.621 161.936C271.005 162.661 271.197 163.485 271.197 164.408C271.197 165.331 271.005 166.157 270.621 166.888C270.237 167.613 269.714 168.187 269.053 168.608C268.392 169.029 267.64 169.24 266.797 169.24ZM276.412 171H278.508V165.816H279.444L283.396 171H286.052L281.708 165.584C282.695 165.381 283.468 164.936 284.028 164.248C284.594 163.56 284.876 162.709 284.876 161.696C284.876 160.469 284.484 159.515 283.7 158.832C282.916 158.144 281.858 157.8 280.524 157.8H276.412V171ZM278.508 164.056V159.48H279.908C280.788 159.48 281.471 159.68 281.956 160.08C282.447 160.48 282.692 161.037 282.692 161.752C282.692 162.472 282.447 163.037 281.956 163.448C281.466 163.853 280.783 164.056 279.908 164.056H278.508ZM295.613 171.256C296.514 171.256 297.301 171.083 297.973 170.736C298.645 170.384 299.167 169.904 299.541 169.296C299.914 168.688 300.101 168 300.101 167.232C300.101 166.475 299.917 165.821 299.549 165.272C299.181 164.723 298.703 164.315 298.117 164.048C298.618 163.776 299.013 163.395 299.301 162.904C299.589 162.408 299.733 161.859 299.733 161.256C299.733 160.552 299.557 159.923 299.205 159.368C298.858 158.808 298.381 158.368 297.773 158.048C297.17 157.723 296.485 157.56 295.717 157.56C295.045 157.56 294.426 157.691 293.861 157.952C293.295 158.213 292.823 158.576 292.445 159.04C292.066 159.499 291.818 160.032 291.701 160.64L293.389 161.376C293.426 160.976 293.551 160.619 293.765 160.304C293.978 159.984 294.253 159.733 294.589 159.552C294.925 159.365 295.29 159.272 295.685 159.272C296.079 159.272 296.437 159.363 296.757 159.544C297.077 159.72 297.33 159.963 297.517 160.272C297.709 160.576 297.805 160.917 297.805 161.296C297.805 161.68 297.706 162.037 297.509 162.368C297.317 162.693 297.058 162.957 296.733 163.16C296.407 163.363 296.042 163.464 295.637 163.464H295.093V164.896C295.237 164.843 295.421 164.816 295.645 164.816C296.077 164.816 296.469 164.923 296.821 165.136C297.173 165.349 297.453 165.64 297.661 166.008C297.874 166.376 297.981 166.789 297.981 167.248C297.981 167.899 297.765 168.424 297.333 168.824C296.906 169.219 296.335 169.416 295.621 169.416C294.858 169.416 294.237 169.197 293.757 168.76C293.277 168.317 293.021 167.747 292.989 167.048L291.021 167.92C291.165 168.587 291.447 169.171 291.869 169.672C292.295 170.173 292.829 170.563 293.469 170.84C294.109 171.117 294.823 171.256 295.613 171.256Z" fill="white"/>
<path d="M253.312 45.256C254.213 45.256 255.008 45.104 255.696 44.8C256.389 44.4907 256.931 44.0453 257.32 43.464C257.715 42.8773 257.912 42.1707 257.912 41.344C257.912 40.56 257.736 39.9227 257.384 39.432C257.037 38.936 256.56 38.52 255.952 38.184C255.344 37.8427 254.651 37.5173 253.872 37.208C253.477 37.0533 253.112 36.9013 252.776 36.752C252.445 36.5973 252.181 36.408 251.984 36.184C251.787 35.9547 251.688 35.6533 251.688 35.28C251.688 34.8 251.867 34.3787 252.224 34.016C252.581 33.648 253.088 33.464 253.744 33.464C254.304 33.464 254.824 33.5867 255.304 33.832C255.784 34.072 256.173 34.3493 256.472 34.664L257.384 33.072C257.133 32.8107 256.813 32.5653 256.424 32.336C256.04 32.1067 255.613 31.92 255.144 31.776C254.68 31.632 254.2 31.56 253.704 31.56C252.899 31.56 252.192 31.736 251.584 32.088C250.976 32.44 250.501 32.9013 250.16 33.472C249.824 34.0427 249.656 34.6587 249.656 35.32C249.656 35.928 249.795 36.4453 250.072 36.872C250.349 37.2933 250.701 37.648 251.128 37.936C251.56 38.2187 252.003 38.456 252.456 38.648C253.091 38.9093 253.648 39.1573 254.128 39.392C254.608 39.6213 254.981 39.8907 255.248 40.2C255.515 40.504 255.648 40.9013 255.648 41.392C255.648 42.0267 255.429 42.5067 254.992 42.832C254.555 43.152 254.013 43.312 253.368 43.312C252.76 43.312 252.219 43.1973 251.744 42.968C251.269 42.7333 250.864 42.4667 250.528 42.168C250.192 41.8693 249.925 41.6187 249.728 41.416L248.624 43.112C248.763 43.272 248.965 43.472 249.232 43.712C249.499 43.9467 249.827 44.184 250.216 44.424C250.611 44.6587 251.064 44.856 251.576 45.016C252.093 45.176 252.672 45.256 253.312 45.256ZM259.338 45H261.586L262.89 41.56H268.25L269.546 45H271.802L266.538 31.8H264.594L259.338 45ZM263.602 39.72L265.562 34.616L267.538 39.72H263.602ZM274.147 45H281.283V43.16H276.243V31.8H274.147V45ZM282.447 45H284.695L285.999 41.56H291.359L292.655 45H294.911L289.647 31.8H287.703L282.447 45ZM286.711 39.72L288.671 34.616L290.647 39.72H286.711ZM301.491 45H303.587V39.816H304.523L308.475 45H311.131L306.787 39.584C307.773 39.3813 308.547 38.936 309.107 38.248C309.672 37.56 309.955 36.7093 309.955 35.696C309.955 34.4693 309.563 33.5147 308.779 32.832C307.995 32.144 306.936 31.8 305.603 31.8H301.491V45ZM303.587 38.056V33.48H304.987C305.867 33.48 306.549 33.68 307.035 34.08C307.525 34.48 307.771 35.0373 307.771 35.752C307.771 36.472 307.525 37.0373 307.035 37.448C306.544 37.8533 305.861 38.056 304.987 38.056H303.587ZM313.241 45H320.337V43.16H315.337V39.304H320.145V37.464H315.337V33.64H320.337V31.8H313.241V45ZM328.295 45.256C331.537 45.256 333.159 43.6053 333.159 40.304V31.8H331.063V39.736C331.063 40.936 330.839 41.8133 330.391 42.368C329.948 42.9227 329.249 43.2 328.295 43.2C327.34 43.2 326.639 42.9227 326.191 42.368C325.748 41.8133 325.527 40.936 325.527 39.736V31.8H323.439V40.304C323.439 43.6053 325.057 45.256 328.295 45.256ZM336.803 45H338.899V35.32L345.091 45H347.187V31.8H345.091V41.488L338.899 31.8H336.803V45ZM351.037 45H353.133V31.8H351.037V45ZM362.735 45.256C363.657 45.256 364.521 45.08 365.327 44.728C366.132 44.376 366.839 43.888 367.447 43.264C368.055 42.6347 368.529 41.9067 368.871 41.08C369.217 40.248 369.391 39.3573 369.391 38.408C369.391 37.4533 369.217 36.5627 368.871 35.736C368.529 34.9093 368.055 34.184 367.447 33.56C366.839 32.9307 366.132 32.44 365.327 32.088C364.521 31.736 363.657 31.56 362.735 31.56C361.812 31.56 360.948 31.736 360.143 32.088C359.337 32.44 358.631 32.9307 358.023 33.56C357.415 34.184 356.937 34.9093 356.591 35.736C356.249 36.5627 356.079 37.4533 356.079 38.408C356.079 39.3573 356.249 40.248 356.591 41.08C356.937 41.9067 357.415 42.6347 358.023 43.264C358.631 43.888 359.337 44.376 360.143 44.728C360.948 45.08 361.812 45.256 362.735 45.256ZM362.735 43.24C361.897 43.24 361.148 43.0293 360.487 42.608C359.825 42.1867 359.303 41.6133 358.919 40.888C358.535 40.1573 358.343 39.3307 358.343 38.408C358.343 37.4853 358.535 36.6613 358.919 35.936C359.303 35.2053 359.825 34.6293 360.487 34.208C361.148 33.7867 361.897 33.576 362.735 33.576C363.577 33.576 364.329 33.7867 364.991 34.208C365.652 34.6293 366.175 35.2053 366.559 35.936C366.943 36.6613 367.135 37.4853 367.135 38.408C367.135 39.3307 366.943 40.1573 366.559 40.888C366.175 41.6133 365.652 42.1867 364.991 42.608C364.329 43.0293 363.577 43.24 362.735 43.24ZM364.367 30.208C364.815 30.208 365.284 30.04 365.775 29.704C366.265 29.368 366.649 28.928 366.927 28.384L365.911 27.488C365.767 27.8293 365.561 28.1173 365.295 28.352C365.028 28.5867 364.745 28.704 364.447 28.704C364.207 28.704 363.961 28.64 363.711 28.512C363.46 28.3787 363.196 28.2267 362.919 28.056C362.641 27.88 362.351 27.728 362.047 27.6C361.743 27.4667 361.42 27.4 361.079 27.4C360.545 27.4 360.057 27.576 359.615 27.928C359.177 28.28 358.825 28.712 358.559 29.224L359.575 30.12C359.708 29.8107 359.897 29.5333 360.143 29.288C360.393 29.0373 360.713 28.912 361.103 28.912C361.391 28.912 361.665 28.9787 361.927 29.112C362.193 29.24 362.455 29.3893 362.711 29.56C362.967 29.7307 363.231 29.8827 363.503 30.016C363.775 30.144 364.063 30.208 364.367 30.208ZM372.35 45H379.446V43.16H374.446V39.304H379.254V37.464H374.446V33.64H379.446V31.8H372.35V45ZM386.14 45.256C387.041 45.256 387.836 45.104 388.524 44.8C389.217 44.4907 389.759 44.0453 390.148 43.464C390.543 42.8773 390.74 42.1707 390.74 41.344C390.74 40.56 390.564 39.9227 390.212 39.432C389.865 38.936 389.388 38.52 388.78 38.184C388.172 37.8427 387.479 37.5173 386.7 37.208C386.305 37.0533 385.94 36.9013 385.604 36.752C385.273 36.5973 385.009 36.408 384.812 36.184C384.615 35.9547 384.516 35.6533 384.516 35.28C384.516 34.8 384.695 34.3787 385.052 34.016C385.409 33.648 385.916 33.464 386.572 33.464C387.132 33.464 387.652 33.5867 388.132 33.832C388.612 34.072 389.001 34.3493 389.3 34.664L390.212 33.072C389.961 32.8107 389.641 32.5653 389.252 32.336C388.868 32.1067 388.441 31.92 387.972 31.776C387.508 31.632 387.028 31.56 386.532 31.56C385.727 31.56 385.02 31.736 384.412 32.088C383.804 32.44 383.329 32.9013 382.988 33.472C382.652 34.0427 382.484 34.6587 382.484 35.32C382.484 35.928 382.623 36.4453 382.9 36.872C383.177 37.2933 383.529 37.648 383.956 37.936C384.388 38.2187 384.831 38.456 385.284 38.648C385.919 38.9093 386.476 39.1573 386.956 39.392C387.436 39.6213 387.809 39.8907 388.076 40.2C388.343 40.504 388.476 40.9013 388.476 41.392C388.476 42.0267 388.257 42.5067 387.82 42.832C387.383 43.152 386.841 43.312 386.196 43.312C385.588 43.312 385.047 43.1973 384.572 42.968C384.097 42.7333 383.692 42.4667 383.356 42.168C383.02 41.8693 382.753 41.6187 382.556 41.416L381.452 43.112C381.591 43.272 381.793 43.472 382.06 43.712C382.327 43.9467 382.655 44.184 383.044 44.424C383.439 44.6587 383.892 44.856 384.404 45.016C384.921 45.176 385.5 45.256 386.14 45.256Z" fill="#990099"/>
<path d="M134.312 171.256C135.213 171.256 136.008 171.104 136.696 170.8C137.389 170.491 137.931 170.045 138.32 169.464C138.715 168.877 138.912 168.171 138.912 167.344C138.912 166.56 138.736 165.923 138.384 165.432C138.037 164.936 137.56 164.52 136.952 164.184C136.344 163.843 135.651 163.517 134.872 163.208C134.477 163.053 134.112 162.901 133.776 162.752C133.445 162.597 133.181 162.408 132.984 162.184C132.787 161.955 132.688 161.653 132.688 161.28C132.688 160.8 132.867 160.379 133.224 160.016C133.581 159.648 134.088 159.464 134.744 159.464C135.304 159.464 135.824 159.587 136.304 159.832C136.784 160.072 137.173 160.349 137.472 160.664L138.384 159.072C138.133 158.811 137.813 158.565 137.424 158.336C137.04 158.107 136.613 157.92 136.144 157.776C135.68 157.632 135.2 157.56 134.704 157.56C133.899 157.56 133.192 157.736 132.584 158.088C131.976 158.44 131.501 158.901 131.16 159.472C130.824 160.043 130.656 160.659 130.656 161.32C130.656 161.928 130.795 162.445 131.072 162.872C131.349 163.293 131.701 163.648 132.128 163.936C132.56 164.219 133.003 164.456 133.456 164.648C134.091 164.909 134.648 165.157 135.128 165.392C135.608 165.621 135.981 165.891 136.248 166.2C136.515 166.504 136.648 166.901 136.648 167.392C136.648 168.027 136.429 168.507 135.992 168.832C135.555 169.152 135.013 169.312 134.368 169.312C133.76 169.312 133.219 169.197 132.744 168.968C132.269 168.733 131.864 168.467 131.528 168.168C131.192 167.869 130.925 167.619 130.728 167.416L129.624 169.112C129.763 169.272 129.965 169.472 130.232 169.712C130.499 169.947 130.827 170.184 131.216 170.424C131.611 170.659 132.064 170.856 132.576 171.016C133.093 171.176 133.672 171.256 134.312 171.256ZM141.85 171H148.946V169.16H143.946V165.304H148.754V163.464H143.946V159.64H148.946V157.8H141.85V171ZM154.44 171H156.528V159.664H160.128V157.8H150.848V159.664H154.44V171ZM167.797 171.256C168.72 171.256 169.584 171.08 170.389 170.728C171.194 170.376 171.901 169.888 172.509 169.264C173.117 168.635 173.592 167.907 173.933 167.08C174.28 166.248 174.453 165.357 174.453 164.408C174.453 163.453 174.28 162.563 173.933 161.736C173.592 160.909 173.117 160.184 172.509 159.56C171.901 158.931 171.194 158.44 170.389 158.088C169.584 157.736 168.72 157.56 167.797 157.56C166.874 157.56 166.01 157.736 165.205 158.088C164.4 158.44 163.693 158.931 163.085 159.56C162.477 160.184 162 160.909 161.653 161.736C161.312 162.563 161.141 163.453 161.141 164.408C161.141 165.357 161.312 166.248 161.653 167.08C162 167.907 162.477 168.635 163.085 169.264C163.693 169.888 164.4 170.376 165.205 170.728C166.01 171.08 166.874 171.256 167.797 171.256ZM167.797 169.24C166.96 169.24 166.21 169.029 165.549 168.608C164.888 168.187 164.365 167.613 163.981 166.888C163.597 166.157 163.405 165.331 163.405 164.408C163.405 163.485 163.597 162.661 163.981 161.936C164.365 161.205 164.888 160.629 165.549 160.208C166.21 159.787 166.96 159.576 167.797 159.576C168.64 159.576 169.392 159.787 170.053 160.208C170.714 160.629 171.237 161.205 171.621 161.936C172.005 162.661 172.197 163.485 172.197 164.408C172.197 165.331 172.005 166.157 171.621 166.888C171.237 167.613 170.714 168.187 170.053 168.608C169.392 169.029 168.64 169.24 167.797 169.24ZM177.412 171H179.508V165.816H180.444L184.396 171H187.052L182.708 165.584C183.695 165.381 184.468 164.936 185.028 164.248C185.594 163.56 185.876 162.709 185.876 161.696C185.876 160.469 185.484 159.515 184.7 158.832C183.916 158.144 182.858 157.8 181.524 157.8H177.412V171ZM179.508 164.056V159.48H180.908C181.788 159.48 182.471 159.68 182.956 160.08C183.447 160.48 183.692 161.037 183.692 161.752C183.692 162.472 183.447 163.037 182.956 163.448C182.466 163.853 181.783 164.056 180.908 164.056H179.508ZM192.165 171H201.981V169.112H196.077C197.143 168.312 198.039 167.589 198.765 166.944C199.49 166.293 200.071 165.691 200.509 165.136C200.946 164.576 201.261 164.04 201.453 163.528C201.645 163.011 201.741 162.485 201.741 161.952C201.741 161.109 201.535 160.357 201.125 159.696C200.719 159.029 200.165 158.507 199.461 158.128C198.757 157.744 197.957 157.552 197.061 157.552C196.25 157.552 195.514 157.717 194.853 158.048C194.197 158.379 193.647 158.845 193.205 159.448C192.762 160.045 192.458 160.744 192.293 161.544L194.085 162.328C194.271 161.437 194.621 160.736 195.133 160.224C195.645 159.707 196.247 159.448 196.941 159.448C197.421 159.448 197.85 159.563 198.229 159.792C198.613 160.021 198.917 160.331 199.141 160.72C199.365 161.104 199.477 161.533 199.477 162.008C199.477 162.44 199.354 162.899 199.109 163.384C198.863 163.864 198.458 164.411 197.893 165.024C197.333 165.632 196.583 166.339 195.645 167.144C194.711 167.944 193.551 168.88 192.165 169.952V171Z" fill="#990099"/>
<path d="M338.312 171.256C339.213 171.256 340.008 171.104 340.696 170.8C341.389 170.491 341.931 170.045 342.32 169.464C342.715 168.877 342.912 168.171 342.912 167.344C342.912 166.56 342.736 165.923 342.384 165.432C342.037 164.936 341.56 164.52 340.952 164.184C340.344 163.843 339.651 163.517 338.872 163.208C338.477 163.053 338.112 162.901 337.776 162.752C337.445 162.597 337.181 162.408 336.984 162.184C336.787 161.955 336.688 161.653 336.688 161.28C336.688 160.8 336.867 160.379 337.224 160.016C337.581 159.648 338.088 159.464 338.744 159.464C339.304 159.464 339.824 159.587 340.304 159.832C340.784 160.072 341.173 160.349 341.472 160.664L342.384 159.072C342.133 158.811 341.813 158.565 341.424 158.336C341.04 158.107 340.613 157.92 340.144 157.776C339.68 157.632 339.2 157.56 338.704 157.56C337.899 157.56 337.192 157.736 336.584 158.088C335.976 158.44 335.501 158.901 335.16 159.472C334.824 160.043 334.656 160.659 334.656 161.32C334.656 161.928 334.795 162.445 335.072 162.872C335.349 163.293 335.701 163.648 336.128 163.936C336.56 164.219 337.003 164.456 337.456 164.648C338.091 164.909 338.648 165.157 339.128 165.392C339.608 165.621 339.981 165.891 340.248 166.2C340.515 166.504 340.648 166.901 340.648 167.392C340.648 168.027 340.429 168.507 339.992 168.832C339.555 169.152 339.013 169.312 338.368 169.312C337.76 169.312 337.219 169.197 336.744 168.968C336.269 168.733 335.864 168.467 335.528 168.168C335.192 167.869 334.925 167.619 334.728 167.416L333.624 169.112C333.763 169.272 333.965 169.472 334.232 169.712C334.499 169.947 334.827 170.184 335.216 170.424C335.611 170.659 336.064 170.856 336.576 171.016C337.093 171.176 337.672 171.256 338.312 171.256ZM345.85 171H352.946V169.16H347.946V165.304H352.754V163.464H347.946V159.64H352.946V157.8H345.85V171ZM358.44 171H360.528V159.664H364.128V157.8H354.848V159.664H358.44V171ZM371.797 171.256C372.72 171.256 373.584 171.08 374.389 170.728C375.194 170.376 375.901 169.888 376.509 169.264C377.117 168.635 377.592 167.907 377.933 167.08C378.28 166.248 378.453 165.357 378.453 164.408C378.453 163.453 378.28 162.563 377.933 161.736C377.592 160.909 377.117 160.184 376.509 159.56C375.901 158.931 375.194 158.44 374.389 158.088C373.584 157.736 372.72 157.56 371.797 157.56C370.874 157.56 370.01 157.736 369.205 158.088C368.4 158.44 367.693 158.931 367.085 159.56C366.477 160.184 366 160.909 365.653 161.736C365.312 162.563 365.141 163.453 365.141 164.408C365.141 165.357 365.312 166.248 365.653 167.08C366 167.907 366.477 168.635 367.085 169.264C367.693 169.888 368.4 170.376 369.205 170.728C370.01 171.08 370.874 171.256 371.797 171.256ZM371.797 169.24C370.96 169.24 370.21 169.029 369.549 168.608C368.888 168.187 368.365 167.613 367.981 166.888C367.597 166.157 367.405 165.331 367.405 164.408C367.405 163.485 367.597 162.661 367.981 161.936C368.365 161.205 368.888 160.629 369.549 160.208C370.21 159.787 370.96 159.576 371.797 159.576C372.64 159.576 373.392 159.787 374.053 160.208C374.714 160.629 375.237 161.205 375.621 161.936C376.005 162.661 376.197 163.485 376.197 164.408C376.197 165.331 376.005 166.157 375.621 166.888C375.237 167.613 374.714 168.187 374.053 168.608C373.392 169.029 372.64 169.24 371.797 169.24ZM381.412 171H383.508V165.816H384.444L388.396 171H391.052L386.708 165.584C387.695 165.381 388.468 164.936 389.028 164.248C389.594 163.56 389.876 162.709 389.876 161.696C389.876 160.469 389.484 159.515 388.7 158.832C387.916 158.144 386.858 157.8 385.524 157.8H381.412V171ZM383.508 164.056V159.48H384.908C385.788 159.48 386.471 159.68 386.956 160.08C387.447 160.48 387.692 161.037 387.692 161.752C387.692 162.472 387.447 163.037 386.956 163.448C386.466 163.853 385.783 164.056 384.908 164.056H383.508ZM402.293 171H404.269V168.536H405.805V166.696H404.269V157.8H402.189L395.701 167.824V168.536H402.293V171ZM398.517 166.696L402.293 160.632V166.696H398.517Z" fill="#990099"/>
<path d="M52.201 37H54.952L56.3275 24.652L60.643 36.349H62.3965L66.7015 24.652L68.0875 37H70.828L68.917 19.675H65.998L61.5145 31.4875L57.031 19.675H54.112L52.201 37ZM73.0314 37H75.9819L77.6934 32.485H84.7284L86.4294 37H89.3904L82.4814 19.675H79.9299L73.0314 37ZM78.6279 30.07L81.2004 23.371L83.7939 30.07H78.6279ZM92.468 37H95.219V30.112H97.865C98.992 30.112 99.9825 29.8985 100.837 29.4715C101.698 29.0375 102.37 28.425 102.853 27.634C103.336 26.836 103.577 25.8875 103.577 24.7885C103.577 23.6825 103.336 22.7515 102.853 21.9955C102.37 21.2325 101.698 20.655 100.837 20.263C99.9825 19.871 98.992 19.675 97.865 19.675H92.468V37ZM95.219 27.886V21.88H97.0565C98.0925 21.88 98.9605 22.1215 99.6605 22.6045C100.361 23.0875 100.711 23.84 100.711 24.862C100.711 25.877 100.361 26.6365 99.6605 27.1405C98.9605 27.6375 98.0925 27.886 97.0565 27.886H95.219ZM103.814 37H106.764L108.476 32.485H115.511L117.212 37H120.173L113.264 19.675H110.712L103.814 37ZM109.41 30.07L111.983 23.371L114.576 30.07H109.41ZM128.808 37H133.26C134.492 37 135.636 36.783 136.693 36.349C137.757 35.908 138.685 35.2955 139.476 34.5115C140.274 33.7205 140.893 32.8 141.334 31.75C141.775 30.7 141.996 29.566 141.996 28.348C141.996 27.13 141.772 25.996 141.324 24.946C140.883 23.889 140.263 22.9685 139.465 22.1845C138.674 21.3935 137.75 20.7775 136.693 20.3365C135.636 19.8955 134.492 19.675 133.26 19.675H128.808V37ZM131.559 34.5325V22.1425H132.966C134.121 22.1425 135.157 22.4155 136.074 22.9615C136.991 23.5005 137.715 24.239 138.247 25.177C138.779 26.108 139.045 27.1615 139.045 28.3375C139.045 29.5135 138.779 30.5705 138.247 31.5085C137.715 32.4395 136.991 33.178 136.074 33.724C135.157 34.263 134.121 34.5325 132.966 34.5325H131.559ZM153.368 37.336C154.579 37.336 155.713 37.105 156.77 36.643C157.827 36.181 158.755 35.5405 159.553 34.7215C160.351 33.8955 160.974 32.94 161.422 31.855C161.877 30.763 162.104 29.594 162.104 28.348C162.104 27.095 161.877 25.926 161.422 24.841C160.974 23.756 160.351 22.804 159.553 21.985C158.755 21.159 157.827 20.515 156.77 20.053C155.713 19.591 154.579 19.36 153.368 19.36C152.157 19.36 151.023 19.591 149.966 20.053C148.909 20.515 147.982 21.159 147.184 21.985C146.386 22.804 145.759 23.756 145.304 24.841C144.856 25.926 144.632 27.095 144.632 28.348C144.632 29.594 144.856 30.763 145.304 31.855C145.759 32.94 146.386 33.8955 147.184 34.7215C147.982 35.5405 148.909 36.181 149.966 36.643C151.023 37.105 152.157 37.336 153.368 37.336ZM153.368 34.69C152.269 34.69 151.286 34.4135 150.418 33.8605C149.55 33.3075 148.864 32.555 148.36 31.603C147.856 30.644 147.604 29.559 147.604 28.348C147.604 27.137 147.856 26.0555 148.36 25.1035C148.864 24.1445 149.55 23.3885 150.418 22.8355C151.286 22.2825 152.269 22.006 153.368 22.006C154.474 22.006 155.461 22.2825 156.329 22.8355C157.197 23.3885 157.883 24.1445 158.387 25.1035C158.891 26.0555 159.143 27.137 159.143 28.348C159.143 29.559 158.891 30.644 158.387 31.603C157.883 32.555 157.197 33.3075 156.329 33.8605C155.461 34.4135 154.474 34.69 153.368 34.69ZM37.6916 61H47.0051V58.585H40.4426V53.524H46.7531V51.109H40.4426V46.09H47.0051V43.675H37.6916V61ZM55.7913 61.336C56.9743 61.336 58.0173 61.1365 58.9203 60.7375C59.8303 60.3315 60.5408 59.747 61.0518 58.984C61.5698 58.214 61.8288 57.2865 61.8288 56.2015C61.8288 55.1725 61.5978 54.336 61.1358 53.692C60.6808 53.041 60.0543 52.495 59.2563 52.054C58.4583 51.606 57.5483 51.179 56.5263 50.773C56.0083 50.57 55.5288 50.3705 55.0878 50.1745C54.6538 49.9715 54.3073 49.723 54.0483 49.429C53.7893 49.128 53.6598 48.7325 53.6598 48.2425C53.6598 47.6125 53.8943 47.0595 54.3633 46.5835C54.8323 46.1005 55.4973 45.859 56.3583 45.859C57.0933 45.859 57.7758 46.02 58.4058 46.342C59.0358 46.657 59.5468 47.021 59.9388 47.434L61.1358 45.3445C60.8068 45.0015 60.3868 44.6795 59.8758 44.3785C59.3718 44.0775 58.8118 43.8325 58.1958 43.6435C57.5868 43.4545 56.9568 43.36 56.3058 43.36C55.2488 43.36 54.3213 43.591 53.5233 44.053C52.7253 44.515 52.1023 45.1205 51.6543 45.8695C51.2133 46.6185 50.9928 47.427 50.9928 48.295C50.9928 49.093 51.1748 49.772 51.5388 50.332C51.9028 50.885 52.3648 51.3505 52.9248 51.7285C53.4918 52.0995 54.0728 52.411 54.6678 52.663C55.5008 53.006 56.2323 53.3315 56.8623 53.6395C57.4923 53.9405 57.9823 54.294 58.3323 54.7C58.6823 55.099 58.8573 55.6205 58.8573 56.2645C58.8573 57.0975 58.5703 57.7275 57.9963 58.1545C57.4223 58.5745 56.7118 58.7845 55.8648 58.7845C55.0668 58.7845 54.3563 58.634 53.7333 58.333C53.1103 58.025 52.5783 57.675 52.1373 57.283C51.6963 56.891 51.3463 56.562 51.0873 56.296L49.6383 58.522C49.8203 58.732 50.0863 58.9945 50.4363 59.3095C50.7863 59.6175 51.2168 59.929 51.7278 60.244C52.2458 60.552 52.8408 60.811 53.5128 61.021C54.1918 61.231 54.9513 61.336 55.7913 61.336ZM73.4023 61.336C74.4873 61.336 75.5058 61.1785 76.4578 60.8635C77.4168 60.5485 78.2358 60.1425 78.9148 59.6455L77.7073 57.3145C77.1823 57.7345 76.5593 58.06 75.8383 58.291C75.1173 58.522 74.3578 58.6375 73.5598 58.6375C72.2998 58.6375 71.1763 58.361 70.1893 57.808C69.2023 57.248 68.4253 56.4955 67.8583 55.5505C67.2913 54.5985 67.0078 53.531 67.0078 52.348C67.0078 51.165 67.2913 50.101 67.8583 49.156C68.4253 48.204 69.2023 47.4515 70.1893 46.8985C71.1763 46.3385 72.2998 46.0585 73.5598 46.0585C74.3578 46.0585 75.1173 46.174 75.8383 46.405C76.5593 46.636 77.1823 46.9615 77.7073 47.3815L78.9148 45.0505C78.2148 44.5395 77.3853 44.13 76.4263 43.822C75.4673 43.514 74.4523 43.36 73.3813 43.36C72.0793 43.36 70.8613 43.591 69.7273 44.053C68.6003 44.508 67.6063 45.145 66.7453 45.964C65.8913 46.783 65.2228 47.7385 64.7398 48.8305C64.2568 49.9155 64.0153 51.088 64.0153 52.348C64.0153 53.608 64.2568 54.784 64.7398 55.876C65.2228 56.961 65.8913 57.913 66.7453 58.732C67.6063 59.551 68.6038 60.1915 69.7378 60.6535C70.8718 61.1085 72.0933 61.336 73.4023 61.336ZM82.05 61H84.801V54.196H86.0295L91.2165 61H94.7025L89.001 53.8915C90.296 53.6255 91.311 53.041 92.046 52.138C92.788 51.235 93.159 50.1185 93.159 48.7885C93.159 47.1785 92.6445 45.9255 91.6155 45.0295C90.5865 44.1265 89.197 43.675 87.447 43.675H82.05V61ZM84.801 51.886V45.88H86.6385C87.7935 45.88 88.6895 46.1425 89.3265 46.6675C89.9705 47.1925 90.2925 47.924 90.2925 48.862C90.2925 49.807 89.9705 50.549 89.3265 51.088C88.6825 51.62 87.7865 51.886 86.6385 51.886H84.801ZM97.4719 61H100.223V43.675H97.4719V61ZM107.147 61H109.888V46.1215H114.613V43.675H102.433V46.1215H107.147V61ZM125.355 61.336C126.566 61.336 127.7 61.105 128.757 60.643C129.814 60.181 130.741 59.5405 131.539 58.7215C132.337 57.8955 132.96 56.94 133.408 55.855C133.863 54.763 134.091 53.594 134.091 52.348C134.091 51.095 133.863 49.926 133.408 48.841C132.96 47.756 132.337 46.804 131.539 45.985C130.741 45.159 129.814 44.515 128.757 44.053C127.7 43.591 126.566 43.36 125.355 43.36C124.144 43.36 123.01 43.591 121.953 44.053C120.896 44.515 119.968 45.159 119.17 45.985C118.372 46.804 117.746 47.756 117.291 48.841C116.843 49.926 116.619 51.095 116.619 52.348C116.619 53.594 116.843 54.763 117.291 55.855C117.746 56.94 118.372 57.8955 119.17 58.7215C119.968 59.5405 120.896 60.181 121.953 60.643C123.01 61.105 124.144 61.336 125.355 61.336ZM125.355 58.69C124.256 58.69 123.272 58.4135 122.404 57.8605C121.536 57.3075 120.85 56.555 120.346 55.603C119.842 54.644 119.59 53.559 119.59 52.348C119.59 51.137 119.842 50.0555 120.346 49.1035C120.85 48.1445 121.536 47.3885 122.404 46.8355C123.272 46.2825 124.256 46.006 125.355 46.006C126.461 46.006 127.448 46.2825 128.316 46.8355C129.184 47.3885 129.87 48.1445 130.374 49.1035C130.878 50.0555 131.13 51.137 131.13 52.348C131.13 53.559 130.878 54.644 130.374 55.603C129.87 56.555 129.184 57.3075 128.316 57.8605C127.448 58.4135 126.461 58.69 125.355 58.69ZM124.987 42.436L128.232 38.467L126.405 37.1125L123.832 41.5225L124.987 42.436ZM137.975 61H140.726V54.196H141.954L147.141 61H150.627L144.926 53.8915C146.221 53.6255 147.236 53.041 147.971 52.138C148.713 51.235 149.084 50.1185 149.084 48.7885C149.084 47.1785 148.569 45.9255 147.54 45.0295C146.511 44.1265 145.122 43.675 143.372 43.675H137.975V61ZM140.726 51.886V45.88H142.563C143.718 45.88 144.614 46.1425 145.251 46.6675C145.895 47.1925 146.217 47.924 146.217 48.862C146.217 49.807 145.895 50.549 145.251 51.088C144.607 51.62 143.711 51.886 142.563 51.886H140.726ZM153.397 61H156.148V43.675H153.397V61ZM168.749 61.336C169.96 61.336 171.094 61.105 172.151 60.643C173.208 60.181 174.136 59.5405 174.934 58.7215C175.732 57.8955 176.355 56.94 176.803 55.855C177.258 54.763 177.485 53.594 177.485 52.348C177.485 51.095 177.258 49.926 176.803 48.841C176.355 47.756 175.732 46.804 174.934 45.985C174.136 45.159 173.208 44.515 172.151 44.053C171.094 43.591 169.96 43.36 168.749 43.36C167.538 43.36 166.404 43.591 165.347 44.053C164.29 44.515 163.363 45.159 162.565 45.985C161.767 46.804 161.14 47.756 160.685 48.841C160.237 49.926 160.013 51.095 160.013 52.348C160.013 53.594 160.237 54.763 160.685 55.855C161.14 56.94 161.767 57.8955 162.565 58.7215C163.363 59.5405 164.29 60.181 165.347 60.643C166.404 61.105 167.538 61.336 168.749 61.336ZM168.749 58.69C167.65 58.69 166.667 58.4135 165.799 57.8605C164.931 57.3075 164.245 56.555 163.741 55.603C163.237 54.644 162.985 53.559 162.985 52.348C162.985 51.137 163.237 50.0555 163.741 49.1035C164.245 48.1445 164.931 47.3885 165.799 46.8355C166.667 46.2825 167.65 46.006 168.749 46.006C169.855 46.006 170.842 46.2825 171.71 46.8355C172.578 47.3885 173.264 48.1445 173.768 49.1035C174.272 50.0555 174.524 51.137 174.524 52.348C174.524 53.559 174.272 54.644 173.768 55.603C173.264 56.555 172.578 57.3075 171.71 57.8605C170.842 58.4135 169.855 58.69 168.749 58.69Z" fill="#5A5A5A"/>
</svg>
