<svg width="14" height="11" viewBox="0 0 14 11" fill="none" xmlns="http://www.w3.org/2000/svg">
<path d="M0 1.60382V2.79784C0 3.02436 0.183633 3.20799 0.410156 3.20799C0.636679 3.20799 0.820312 3.39162 0.820312 3.61815V6.6455V9.40332C0.820312 9.7787 1.12462 10.083 1.5 10.083C1.77614 10.083 2 9.85915 2 9.58301V6.6455V4.20799C2 3.65571 2.44772 3.20799 3 3.20799H6.97266H11C11.5523 3.20799 12 3.65571 12 4.20799V6.49976V9.58301C12 9.85915 12.2239 10.083 12.5 10.083C12.8452 10.083 13.125 9.80319 13.125 9.45801V6.6455V3.64549C13.125 3.40387 13.3209 3.20799 13.5625 3.20799C13.8041 3.20799 14 3.01212 14 2.77049V1.60382V0.999649C14 0.447365 13.5523 -0.000349998 13 -0.000349998H7H1C0.447715 -0.000349998 0 0.447365 0 0.99965V1.60382ZM13.1797 1.60382C13.1797 1.88616 12.9508 2.11504 12.6685 2.11504H7H1.33153C1.04919 2.11504 0.820312 1.88616 0.820312 1.60382C0.820312 1.32148 1.04919 1.0926 1.33153 1.0926H7H12.6685C12.9508 1.0926 13.1797 1.32148 13.1797 1.60382Z" fill="#990099"/>
</svg>
