<svg width="522" height="353" viewBox="0 0 522 353" fill="none" xmlns="http://www.w3.org/2000/svg">
<path d="M507.868 251.338H114.616C113.605 251.336 112.635 250.924 111.919 250.19C111.204 249.456 110.802 248.462 110.801 247.424V8.96904C110.802 7.9315 111.204 6.93677 111.919 6.20312C112.635 5.46946 113.605 5.0568 114.616 5.05566H507.868C508.88 5.0568 509.849 5.46946 510.565 6.20312C511.28 6.93677 511.682 7.9315 511.684 8.96904V247.424C511.682 248.462 511.28 249.456 510.565 250.19C509.849 250.924 508.88 251.336 507.868 251.338ZM114.616 6.62101C114.009 6.62169 113.427 6.86929 112.998 7.30949C112.569 7.74968 112.328 8.34651 112.327 8.96904V247.424C112.328 248.047 112.569 248.644 112.998 249.084C113.427 249.524 114.009 249.772 114.616 249.772H507.868C508.475 249.772 509.057 249.524 509.486 249.084C509.915 248.644 510.157 248.047 510.157 247.424V8.96904C510.157 8.34652 509.915 7.74968 509.486 7.30949C509.057 6.86929 508.475 6.62169 507.868 6.62101H114.616Z" fill="#E6E6E6"/>
<path d="M273.067 23.8342C272.27 23.8485 271.509 24.1971 270.95 24.805C270.39 25.4129 270.077 26.2313 270.077 27.0838C270.077 27.9364 270.39 28.7548 270.95 29.3627C271.509 29.9706 272.27 30.3192 273.067 30.3335H349.321C350.126 30.3462 350.903 30.0174 351.481 29.4191C352.06 28.8209 352.393 28.0019 352.407 27.1419C352.421 26.2818 352.116 25.4507 351.558 24.8307C351 24.2107 350.235 23.8524 349.43 23.8344L349.421 23.8342C349.388 23.8336 349.354 23.8336 349.321 23.8342H273.067Z" fill="#2F2E41"/>
<path d="M366.129 23.2929C366.014 23.409 365.949 23.5664 365.949 23.7306C365.949 23.8948 366.014 24.0522 366.129 24.1683L366.129 24.1684L368.772 26.8259H362.255C362.092 26.8264 361.936 26.8918 361.821 27.0079C361.706 27.1239 361.641 27.2811 361.641 27.445C361.641 27.6088 361.706 27.766 361.821 27.8821C361.936 27.9981 362.092 28.0635 362.255 28.064H368.772L366.129 30.7216C366.072 30.7791 366.027 30.8473 365.996 30.9224C365.965 30.9975 365.949 31.078 365.949 31.1593C365.949 31.2406 365.965 31.3211 365.996 31.3962C366.027 31.4713 366.072 31.5396 366.129 31.5971C366.186 31.6545 366.254 31.7001 366.329 31.7313C366.404 31.7624 366.484 31.7784 366.565 31.7784C366.645 31.7784 366.725 31.7624 366.8 31.7313C366.875 31.7002 366.943 31.6546 367 31.5971L370.694 27.8827C370.809 27.7666 370.874 27.6092 370.874 27.445C370.874 27.2808 370.809 27.1233 370.694 27.0072L367 23.2929C366.943 23.2354 366.875 23.1898 366.8 23.1587C366.725 23.1276 366.645 23.1116 366.565 23.1116C366.484 23.1116 366.404 23.1276 366.329 23.1587C366.254 23.1898 366.186 23.2354 366.129 23.2929L366.129 23.2929Z" fill="#2F2E41"/>
<path d="M255.957 23.2929C256.063 23.409 256.123 23.5664 256.123 23.7306C256.123 23.8948 256.063 24.0522 255.958 24.1683L255.957 24.1684L253.536 26.8259H259.507C259.582 26.8256 259.655 26.8413 259.724 26.8723C259.792 26.9032 259.855 26.9487 259.907 27.0061C259.96 27.0636 260.002 27.1318 260.03 27.207C260.059 27.2822 260.074 27.3628 260.074 27.4442C260.074 27.5257 260.059 27.6063 260.031 27.6816C260.003 27.7568 259.961 27.8252 259.908 27.8828C259.856 27.9404 259.794 27.986 259.725 28.0171C259.656 28.0482 259.583 28.0642 259.509 28.064H253.536L255.957 30.7216C256.01 30.7791 256.051 30.8473 256.08 30.9224C256.108 30.9975 256.123 31.078 256.123 31.1593C256.123 31.2406 256.108 31.3211 256.08 31.3962C256.051 31.4713 256.01 31.5396 255.957 31.5971C255.905 31.6545 255.843 31.7001 255.774 31.7313C255.706 31.7624 255.633 31.7784 255.559 31.7784C255.485 31.7784 255.411 31.7624 255.343 31.7313C255.274 31.7002 255.212 31.6546 255.16 31.5971L251.775 27.8827C251.669 27.7666 251.61 27.6092 251.61 27.445C251.61 27.2808 251.669 27.1233 251.775 27.0072L255.16 23.2929C255.265 23.1768 255.409 23.1116 255.559 23.1116C255.708 23.1116 255.852 23.1768 255.957 23.2929L255.957 23.2929Z" fill="#2F2E41"/>
<path d="M109.592 141.152C106.168 141.152 102.821 140.114 99.9739 138.17C97.1269 136.226 94.9079 133.462 93.5975 130.229C92.2872 126.996 91.9443 123.438 92.6124 120.005C93.2804 116.573 94.9292 113.42 97.3504 110.945C99.7717 108.471 102.856 106.785 106.215 106.103C109.573 105.42 113.054 105.77 116.218 107.11C119.381 108.449 122.085 110.717 123.987 113.627C125.89 116.537 126.905 119.958 126.905 123.457C126.905 128.15 125.081 132.651 121.834 135.97C118.587 139.288 114.184 141.152 109.592 141.152Z" fill="#6699CC"/>
<path d="M116.671 121.363H111.362V116.163C111.362 115.703 111.176 115.262 110.844 114.937C110.512 114.612 110.062 114.429 109.592 114.429C109.123 114.429 108.673 114.612 108.341 114.937C108.009 115.262 107.823 115.703 107.823 116.163V121.363H102.513C102.044 121.363 101.594 121.546 101.262 121.871C100.93 122.196 100.744 122.637 100.744 123.096C100.744 123.556 100.93 123.997 101.262 124.322C101.594 124.647 102.044 124.83 102.513 124.83H107.823V130.03C107.823 130.489 108.009 130.93 108.341 131.255C108.673 131.58 109.123 131.763 109.592 131.763C110.062 131.763 110.512 131.58 110.844 131.255C111.176 130.93 111.362 130.489 111.362 130.03V124.83H116.671C117.141 124.83 117.591 124.647 117.923 124.322C118.255 123.997 118.441 123.556 118.441 123.096C118.441 122.637 118.255 122.196 117.923 121.871C117.591 121.546 117.141 121.363 116.671 121.363Z" fill="#FEFEFE"/>
<path d="M194.671 55.6121H142.348V92.446H194.671V55.6121Z" fill="#F1F1F1"/>
<path d="M266.229 55.6121H213.907V92.446H266.229V55.6121Z" fill="#F1F1F1"/>
<path d="M337.019 55.6121H284.696V92.446H337.019V55.6121Z" fill="#F1F1F1"/>
<path d="M408.577 55.6121H356.255V92.446H408.577V55.6121Z" fill="#F1F1F1"/>
<path d="M479.367 55.6121H427.044V92.446H479.367V55.6121Z" fill="#F1F1F1"/>
<path d="M195.44 119.891H142.348V156.725H195.44V119.891Z" fill="#F1F1F1"/>
<path d="M266.229 119.891H213.907V156.725H266.229V119.891Z" fill="#F1F1F1"/>
<path d="M337.788 119.891H285.466V156.725H337.788V119.891Z" fill="#F1F1F1"/>
<path d="M408.577 119.891H356.255V156.725H408.577V119.891Z" fill="#F1F1F1"/>
<path d="M480.136 119.891H427.814V156.725H480.136V119.891Z" fill="#F1F1F1"/>
<path d="M195.44 184.17H143.117V220.282H195.44V184.17Z" fill="#F1F1F1"/>
<path d="M266.229 184.17H213.907V220.282H266.229V184.17Z" fill="#F1F1F1"/>
<path d="M337.788 184.17H285.466V220.282H337.788V184.17Z" fill="#F1F1F1"/>
<path d="M408.577 184.17H356.255V220.282H408.577V184.17Z" fill="#F1F1F1"/>
<path d="M480.136 184.17H427.814V220.282H480.136V184.17Z" fill="#F1F1F1"/>
<path d="M295.853 74.3902C299.465 74.3902 302.393 71.3183 302.393 67.529C302.393 63.7396 299.465 60.6677 295.853 60.6677C292.241 60.6677 289.313 63.7396 289.313 67.529C289.313 71.3183 292.241 74.3902 295.853 74.3902Z" fill="#990099"/>
<path d="M223.525 137.947C227.137 137.947 230.065 135.037 230.065 131.447C230.065 127.857 227.137 124.947 223.525 124.947C219.913 124.947 216.985 127.857 216.985 131.447C216.985 135.037 219.913 137.947 223.525 137.947Z" fill="#990099"/>
<path d="M295.853 202.226C299.465 202.226 302.393 199.154 302.393 195.364C302.393 191.575 299.465 188.503 295.853 188.503C292.241 188.503 289.313 191.575 289.313 195.364C289.313 199.154 292.241 202.226 295.853 202.226Z" fill="#990099"/>
<path d="M368.181 137.947C371.793 137.947 374.722 135.037 374.722 131.447C374.722 127.857 371.793 124.947 368.181 124.947C364.569 124.947 361.641 127.857 361.641 131.447C361.641 135.037 364.569 137.947 368.181 137.947Z" fill="#6699CC"/>
<path d="M438.971 137.947C442.583 137.947 445.511 135.037 445.511 131.447C445.511 127.857 442.583 124.947 438.971 124.947C435.358 124.947 432.43 127.857 432.43 131.447C432.43 135.037 435.358 137.947 438.971 137.947Z" fill="#6699CC"/>
<path d="M223.525 202.226C227.137 202.226 230.065 199.154 230.065 195.364C230.065 191.575 227.137 188.503 223.525 188.503C219.913 188.503 216.985 191.575 216.985 195.364C216.985 199.154 219.913 202.226 223.525 202.226Z" fill="#6699CC"/>
<path d="M41.3206 211.758C41.1689 211.758 41.0166 211.749 40.8636 211.732C40.1062 211.652 39.3707 211.368 38.7053 210.899C38.0399 210.43 37.4596 209.787 37.0024 209.012C36.5453 208.237 36.2216 207.348 36.0526 206.402C35.8836 205.456 35.873 204.476 36.0217 203.525C36.0568 203.304 36.101 203.085 36.154 202.87L18.3799 176.042C17.8007 175.161 17.4596 174.065 17.4071 172.917C17.3546 171.769 17.5935 170.629 18.0884 169.668L18.1206 169.618L34.1195 149.485C34.9931 148.387 36.1725 147.777 37.3985 147.789C38.6244 147.8 39.7966 148.433 40.6574 149.547C41.5181 150.661 41.997 152.166 41.9888 153.73C41.9806 155.295 41.4859 156.791 40.6136 157.891C40.5935 157.916 40.5732 157.941 40.5528 157.966L28.9654 172.025L41.6508 198.009C41.891 198.025 42.1301 198.062 42.3663 198.121C43.6784 198.455 44.8465 199.4 45.6436 200.772C46.4406 202.143 46.8099 203.844 46.6796 205.544C46.5492 207.243 45.9287 208.82 44.9384 209.969C43.948 211.117 42.6587 211.755 41.3206 211.758Z" fill="#FFB8B8"/>
<path d="M65.9377 332.386H72.1429L75.0945 303.143L65.9366 303.143L65.9377 332.386Z" fill="#FFB8B8"/>
<path d="M64.1052 330.558L76.4103 330.558H76.4108C77.4405 330.558 78.4602 330.787 79.4116 331.231C80.363 331.676 81.2275 332.328 81.9557 333.15C82.6839 333.972 83.2615 334.947 83.6556 336.021C84.0497 337.095 84.2526 338.245 84.2526 339.408V339.696L64.1056 339.696L64.1052 330.558Z" fill="#2F2E41"/>
<path d="M4.5788 322.079L10.1622 325.989L25.642 302.517L17.4012 296.746L4.5788 322.079Z" fill="#FFB8B8"/>
<path d="M4.2954 319.592L15.2595 326.923L15.26 326.923C17.113 328.162 18.4519 330.177 18.982 332.525C19.5122 334.872 19.1902 337.36 18.0868 339.441L18.0866 339.442L17.9515 339.697L0 327.694L4.2954 319.592Z" fill="#2F2E41"/>
<path d="M73.3082 322.333H66.4407C65.8847 322.334 65.348 322.08 64.9345 321.619C64.5211 321.158 64.2602 320.523 64.2023 319.838L57.2789 239.166C57.2614 238.963 57.1906 238.773 57.0772 238.624C56.9638 238.476 56.8143 238.378 56.6516 238.346C56.4889 238.314 56.3222 238.349 56.1771 238.445C56.032 238.542 55.9166 238.695 55.8488 238.881L43.3588 273.164L21.2459 317.86C20.9597 318.433 20.5166 318.859 19.9977 319.06C19.4788 319.261 18.9188 319.224 18.4203 318.955L9.58642 314.137C9.29433 313.978 9.03291 313.743 8.8195 313.449C8.60609 313.155 8.44555 312.808 8.34854 312.431C8.25153 312.054 8.22027 311.656 8.25682 311.263C8.29336 310.87 8.39688 310.491 8.56052 310.151L28.8883 267.96L35.1227 232.411C33.1619 216.995 41.5677 194.075 41.653 193.845L41.6946 193.733L64.8488 182.515L64.965 182.691C74.0963 219.836 79.6606 259.81 75.5521 319.777C75.5015 320.472 75.2435 321.12 74.8287 321.592C74.4138 322.065 73.8717 322.329 73.3082 322.333Z" fill="#2F2E41"/>
<path d="M40.5049 197.136L40.3961 196.859C40.344 196.726 35.1466 183.417 31.1401 169.192C30.3701 166.441 30.079 163.526 30.2853 160.632C30.4915 157.738 31.1907 154.927 32.3383 152.377C33.501 149.802 35.0915 147.547 37.0092 145.757C38.9269 143.967 41.13 142.679 43.4788 141.977C47.5565 140.79 51.8497 141.421 55.5761 143.756C59.3025 146.09 62.2142 149.972 63.7806 154.695C66.9587 164.343 65.9458 174.642 64.9926 182.742L64.9736 182.904L64.8521 182.975L40.5049 197.136Z" fill="#990099"/>
<path d="M60.4421 113.062H41.2105V102.562C45.4316 100.461 49.5622 98.6748 52.0591 102.562C54.2824 102.562 56.4146 103.668 57.9867 105.637C59.5588 107.607 60.442 110.278 60.4421 113.062H60.4421Z" fill="#2F2E41"/>
<path d="M45.7894 136.822C52.3645 136.822 57.6946 129.867 57.6946 121.287C57.6946 112.707 52.3645 105.752 45.7894 105.752C39.2143 105.752 33.8841 112.707 33.8841 121.287C33.8841 129.867 39.2143 136.822 45.7894 136.822Z" fill="#FFB8B8"/>
<path d="M39.8368 100.269C28.0307 100.269 24.7262 118.121 24.7262 128.192C24.7262 133.808 26.8318 135.817 30.1405 136.497L31.3091 128.979L34.0459 136.821C34.9753 136.826 35.9517 136.804 36.964 136.782L37.8919 134.477L39.9612 136.74C48.2489 136.755 54.9472 138.213 54.9472 128.192C54.9472 118.121 52.0492 100.269 39.8368 100.269Z" fill="#2F2E41"/>
<path d="M101.436 132.661C101.527 132.825 101.612 132.992 101.691 133.162C102.085 134.003 102.309 134.877 102.35 135.727C102.391 136.577 102.247 137.384 101.928 138.096C101.609 138.807 101.122 139.406 100.499 139.855C99.8754 140.303 99.1299 140.59 98.3112 140.697C98.1207 140.721 97.9266 140.734 97.7298 140.738L87.8541 167.468C87.5271 168.341 86.8921 169.018 86.0436 169.397C85.195 169.776 84.178 169.838 83.1434 169.574L83.0857 169.553L58.0258 157.937C56.6578 157.303 55.4795 156.201 54.7502 154.873C54.0208 153.546 53.8002 152.102 54.1368 150.859C54.4734 149.616 55.3396 148.676 56.5449 148.245C57.7502 147.815 59.1959 147.929 60.5639 148.563C60.5952 148.578 60.6264 148.592 60.6575 148.607L78.4066 157.168L90.6962 136.169C90.5639 135.905 90.4489 135.636 90.352 135.365C89.8189 133.854 89.8404 132.327 90.4125 131.081C90.9846 129.835 92.0663 128.959 93.4476 128.622C94.829 128.285 96.4114 128.512 97.8875 129.258C99.3636 130.005 100.628 131.218 101.436 132.661Z" fill="#FFB8B8"/>
</svg>
