<svg  viewBox="0 0 541 471" fill="none" xmlns="http://www.w3.org/2000/svg">
<path d="M536.866 264.487H115.74C114.657 264.486 113.618 264.043 112.852 263.257C112.086 262.47 111.655 261.404 111.654 260.291V4.61663C111.655 3.50416 112.086 2.4376 112.852 1.65097C113.618 0.864332 114.657 0.421869 115.74 0.420654H536.866C537.95 0.421869 538.988 0.864334 539.754 1.65097C540.52 2.4376 540.951 3.50416 540.952 4.61663V260.291C540.951 261.404 540.52 262.47 539.754 263.257C538.988 264.043 537.95 264.486 536.866 264.487ZM115.74 2.09904C115.09 2.09977 114.467 2.36525 114.008 2.83723C113.548 3.30921 113.289 3.94914 113.289 4.61663V260.291C113.289 260.959 113.548 261.599 114.008 262.071C114.467 262.543 115.09 262.808 115.74 262.809H536.866C537.516 262.808 538.139 262.543 538.599 262.071C539.059 261.599 539.317 260.959 539.318 260.291V4.61663C539.317 3.94915 539.059 3.30921 538.599 2.83723C538.139 2.36525 537.516 2.09977 536.866 2.09904H115.74Z" fill="#E6E6E6"/>
<path d="M285.423 20.5554C284.568 20.5707 283.754 20.9446 283.155 21.5963C282.556 22.2481 282.22 23.1256 282.22 24.0397C282.22 24.9539 282.556 25.8314 283.155 26.4832C283.754 27.1349 284.568 27.5087 285.423 27.5241H367.081C367.943 27.5377 368.775 27.1851 369.395 26.5436C370.014 25.9022 370.371 25.0241 370.386 24.1019C370.402 23.1797 370.075 22.2886 369.477 21.6239C368.879 20.9591 368.06 20.575 367.198 20.5556L367.188 20.5554C367.153 20.5548 367.117 20.5548 367.081 20.5554H285.423Z" fill="#2F2E41"/>
<path d="M385.081 19.9749C384.957 20.0994 384.888 20.2682 384.888 20.4442C384.888 20.6203 384.957 20.7891 385.081 20.9136L385.081 20.9136L387.911 23.7631H380.932C380.757 23.7636 380.59 23.8338 380.467 23.9582C380.344 24.0826 380.275 24.2511 380.275 24.4268C380.275 24.6025 380.344 24.7711 380.467 24.8955C380.59 25.0199 380.757 25.0901 380.932 25.0906H387.911L385.081 27.9401C385.02 28.0017 384.971 28.0749 384.938 28.1554C384.905 28.2359 384.888 28.3222 384.888 28.4094C384.888 28.4966 384.905 28.5829 384.938 28.6634C384.971 28.7439 385.02 28.8171 385.081 28.8788C385.142 28.9404 385.215 28.9893 385.295 29.0226C385.375 29.056 385.461 29.0732 385.547 29.0732C385.634 29.0732 385.719 29.056 385.799 29.0227C385.879 28.9893 385.952 28.9404 386.013 28.8788L389.969 24.8962C390.093 24.7717 390.162 24.6029 390.162 24.4269C390.162 24.2508 390.093 24.082 389.969 23.9575L386.013 19.9749C385.952 19.9133 385.879 19.8644 385.799 19.831C385.719 19.7977 385.634 19.7805 385.547 19.7805C385.461 19.7805 385.375 19.7977 385.295 19.831C385.215 19.8644 385.142 19.9133 385.081 19.9749L385.081 19.9749Z" fill="#E6E6E6"/>
<path d="M267.1 19.9749C267.213 20.0994 267.277 20.2682 267.277 20.4442C267.277 20.6203 267.213 20.7891 267.1 20.9136L267.1 20.9136L264.507 23.7631H270.902C270.981 23.7627 271.06 23.7796 271.133 23.8128C271.207 23.8459 271.274 23.8947 271.33 23.9563C271.386 24.0179 271.431 24.0911 271.462 24.1717C271.492 24.2523 271.508 24.3387 271.508 24.4261C271.508 24.5134 271.493 24.5999 271.462 24.6805C271.432 24.7612 271.387 24.8346 271.331 24.8963C271.275 24.958 271.208 25.007 271.135 25.0403C271.061 25.0737 270.982 25.0907 270.903 25.0906H264.507L267.1 27.9401C267.156 28.0017 267.201 28.0749 267.231 28.1554C267.261 28.2359 267.277 28.3222 267.277 28.4094C267.277 28.4966 267.261 28.5829 267.231 28.6634C267.201 28.7439 267.156 28.8171 267.1 28.8788C267.044 28.9404 266.977 28.9893 266.904 29.0226C266.831 29.056 266.752 29.0732 266.673 29.0732C266.594 29.0732 266.515 29.056 266.442 29.0227C266.368 28.9893 266.302 28.9404 266.246 28.8788L262.621 24.8962C262.508 24.7717 262.444 24.6029 262.444 24.4269C262.444 24.2508 262.508 24.082 262.621 23.9575L266.246 19.9749C266.359 19.8505 266.513 19.7805 266.673 19.7805C266.833 19.7805 266.987 19.8504 267.1 19.9749L267.1 19.9749Z" fill="#E6E6E6"/>
<path d="M111.242 278.426C107.576 278.426 103.991 277.314 100.942 275.229C97.8933 273.144 95.5171 270.181 94.1138 266.714C92.7106 263.247 92.3435 259.433 93.0588 255.752C93.7742 252.072 95.5399 248.691 98.1328 246.038C100.726 243.385 104.029 241.578 107.625 240.846C111.222 240.114 114.949 240.489 118.337 241.925C121.725 243.361 124.62 245.793 126.658 248.913C128.695 252.033 129.782 255.701 129.782 259.454C129.782 264.486 127.829 269.311 124.352 272.869C120.875 276.427 116.159 278.426 111.242 278.426Z" fill="#6699CC"/>
<path d="M118.823 257.208H113.138V251.632C113.138 251.14 112.938 250.667 112.582 250.318C112.227 249.97 111.745 249.774 111.242 249.774C110.74 249.774 110.258 249.97 109.902 250.318C109.547 250.667 109.347 251.14 109.347 251.632V257.208H103.662C103.159 257.208 102.677 257.404 102.321 257.752C101.966 258.101 101.766 258.574 101.766 259.067C101.766 259.56 101.966 260.032 102.321 260.381C102.677 260.729 103.159 260.925 103.662 260.925H109.347V266.501C109.347 266.994 109.547 267.466 109.902 267.815C110.258 268.163 110.74 268.359 111.242 268.359C111.745 268.359 112.227 268.163 112.582 267.815C112.938 267.466 113.138 266.994 113.138 266.501V260.925H118.823C119.326 260.925 119.808 260.729 120.163 260.381C120.519 260.032 120.718 259.56 120.718 259.067C120.718 258.574 120.519 258.101 120.163 257.752C119.808 257.404 119.326 257.208 118.823 257.208Z" fill="white"/>
<path d="M201.469 54.6279H145.438V94.1218H201.469V54.6279Z" fill="#F1F1F1"/>
<path d="M278.1 54.6279H222.069V94.1218H278.1V54.6279Z" fill="#F1F1F1"/>
<path d="M353.907 54.6279H297.876V94.1218H353.907V54.6279Z" fill="#F1F1F1"/>
<path d="M430.538 54.6279H374.507V94.1218H430.538V54.6279Z" fill="#F1F1F1"/>
<path d="M506.345 54.6279H450.313V94.1218H506.345V54.6279Z" fill="#F1F1F1"/>
<path d="M202.293 123.549H145.438V163.042H202.293V123.549Z" fill="#F1F1F1"/>
<path d="M278.1 123.549H222.069V163.042H278.1V123.549Z" fill="#F1F1F1"/>
<path d="M354.731 123.549H298.7V163.042H354.731V123.549Z" fill="#F1F1F1"/>
<path d="M430.538 123.549H374.507V163.042H430.538V123.549Z" fill="#F1F1F1"/>
<path d="M507.169 123.549H451.138V163.042H507.169V123.549Z" fill="#F1F1F1"/>
<path d="M202.293 192.469H146.262V231.188H202.293V192.469Z" fill="#F1F1F1"/>
<path d="M278.1 192.469H222.069V231.188H278.1V192.469Z" fill="#F1F1F1"/>
<path d="M354.731 192.469H298.7V231.188H354.731V192.469Z" fill="#F1F1F1"/>
<path d="M430.538 192.469H374.507V231.188H430.538V192.469Z" fill="#F1F1F1"/>
<path d="M507.169 192.469H451.138V231.188H507.169V192.469Z" fill="#F1F1F1"/>
<path d="M309.824 74.762C313.692 74.762 316.827 71.4683 316.827 67.4053C316.827 63.3423 313.692 60.0486 309.824 60.0486C305.955 60.0486 302.82 63.3423 302.82 67.4053C302.82 71.4683 305.955 74.762 309.824 74.762Z" fill="#A03EA0"/>
<path d="M232.369 142.908C236.237 142.908 239.373 139.788 239.373 135.939C239.373 132.09 236.237 128.969 232.369 128.969C228.5 128.969 225.365 132.09 225.365 135.939C225.365 139.788 228.5 142.908 232.369 142.908Z" fill="#A03EA0"/>
<path d="M309.824 211.829C313.692 211.829 316.827 208.535 316.827 204.472C316.827 200.409 313.692 197.115 309.824 197.115C305.955 197.115 302.82 200.409 302.82 204.472C302.82 208.535 305.955 211.829 309.824 211.829Z" fill="#A03EA0"/>
<path d="M387.278 142.908C391.147 142.908 394.282 139.788 394.282 135.939C394.282 132.09 391.147 128.969 387.278 128.969C383.41 128.969 380.275 132.09 380.275 135.939C380.275 139.788 383.41 142.908 387.278 142.908Z" fill="#6699CC"/>
<path d="M463.085 142.908C466.953 142.908 470.089 139.788 470.089 135.939C470.089 132.09 466.953 128.969 463.085 128.969C459.217 128.969 456.081 132.09 456.081 135.939C456.081 139.788 459.217 142.908 463.085 142.908Z" fill="#6699CC"/>
<path d="M232.369 211.829C236.237 211.829 239.373 208.535 239.373 204.472C239.373 200.409 236.237 197.115 232.369 197.115C228.5 197.115 225.365 200.409 225.365 204.472C225.365 208.535 228.5 211.829 232.369 211.829Z" fill="#6699CC"/>
<path d="M58.707 251.718C65.7482 251.718 71.4561 244.26 71.4561 235.061C71.4561 225.861 65.7482 218.403 58.707 218.403C51.6659 218.403 45.9579 225.861 45.9579 235.061C45.9579 244.26 51.6659 251.718 58.707 251.718Z" fill="#FFB8B8"/>
<path d="M53.9214 332.065C53.759 332.065 53.5958 332.055 53.432 332.037C52.6209 331.95 51.8333 331.646 51.1207 331.143C50.4081 330.641 49.7867 329.951 49.2972 329.121C48.8076 328.29 48.461 327.336 48.28 326.322C48.099 325.308 48.0877 324.257 48.2469 323.237C48.2845 323 48.3318 322.765 48.3886 322.535L29.3546 293.769C28.7344 292.824 28.3691 291.649 28.3129 290.418C28.2566 289.187 28.5125 287.966 29.0425 286.936L29.077 286.882L46.2099 265.295C47.1454 264.118 48.4084 263.464 49.7213 263.476C51.0341 263.488 52.2894 264.166 53.2112 265.361C54.1329 266.556 54.6458 268.169 54.637 269.847C54.6282 271.524 54.0985 273.129 53.1643 274.308C53.1428 274.335 53.1211 274.361 53.0992 274.388L40.6904 289.462L54.275 317.323C54.5323 317.34 54.7883 317.38 55.0412 317.443C56.4464 317.801 57.6972 318.814 58.5508 320.285C59.4044 321.756 59.7998 323.579 59.6602 325.401C59.5207 327.224 58.8561 328.915 57.7956 330.146C56.7351 331.377 55.3543 332.061 53.9214 332.065Z" fill="#FFB8B8"/>
<path d="M80.2836 461.403H86.9287L90.0895 430.048L80.2825 430.049L80.2836 461.403Z" fill="#FFB8B8"/>
<path d="M78.321 459.444L91.4983 459.444H91.4988C92.6016 459.444 93.6936 459.689 94.7124 460.166C95.7312 460.643 96.657 461.342 97.4368 462.223C98.2166 463.104 98.8351 464.15 99.2572 465.301C99.6792 466.452 99.8964 467.686 99.8965 468.932V469.241L78.3214 469.242L78.321 459.444Z" fill="#2F2E41"/>
<path d="M14.5754 450.352L20.5546 454.544L37.1316 429.377L28.3067 423.189L14.5754 450.352Z" fill="#FFB8B8"/>
<path d="M14.2718 447.686L26.0131 455.546L26.0135 455.546C27.998 456.875 29.4317 459.035 29.9995 461.552C30.5672 464.069 30.2223 466.737 29.0408 468.968L29.0406 468.969L28.8958 469.242L9.67194 456.372L14.2718 447.686Z" fill="#2F2E41"/>
<path d="M88.1764 450.625H80.8222C80.2267 450.626 79.652 450.353 79.2092 449.859C78.7665 449.365 78.4871 448.684 78.4251 447.949L71.0109 361.452C70.9922 361.234 70.9163 361.03 70.7949 360.871C70.6735 360.712 70.5134 360.608 70.3392 360.573C70.165 360.538 69.9864 360.575 69.831 360.679C69.6757 360.783 69.5521 360.947 69.4794 361.147L56.1041 397.905L32.4239 445.829C32.1174 446.443 31.6429 446.9 31.0872 447.115C30.5315 447.331 29.9318 447.291 29.398 447.003L19.9379 441.837C19.6251 441.666 19.3452 441.415 19.1167 441.099C18.8881 440.784 18.7162 440.412 18.6123 440.008C18.5084 439.603 18.475 439.177 18.5141 438.755C18.5532 438.334 18.6641 437.927 18.8393 437.563L40.608 392.325L47.2843 354.209C45.1845 337.68 54.1861 313.105 54.2774 312.858L54.322 312.738L79.1174 300.71L79.2418 300.899C89.0204 340.726 94.979 383.587 90.5794 447.884C90.5251 448.63 90.2489 449.324 89.8046 449.831C89.3604 450.337 88.7799 450.621 88.1764 450.625Z" fill="#2F2E41"/>
<path d="M53.048 316.387L52.9314 316.089C52.8757 315.947 47.3099 301.677 43.0194 286.425C42.1948 283.476 41.8831 280.35 42.104 277.247C42.3249 274.143 43.0735 271.129 44.3026 268.396C45.5476 265.634 47.2509 263.217 49.3045 261.298C51.3581 259.378 53.7174 257.998 56.2327 257.244C60.5995 255.972 65.1969 256.649 69.1874 259.152C73.178 261.655 76.296 265.817 77.9735 270.881C81.3768 281.226 80.2922 292.269 79.2714 300.953L79.2511 301.127L79.1209 301.203L53.048 316.387Z" fill="#A03EA0"/>
<path d="M74.3983 226.242H53.8035V214.983C58.3238 212.731 62.7472 210.815 65.4211 214.983C67.802 214.983 70.0853 216.169 71.7689 218.281C73.4524 220.392 74.3982 223.256 74.3983 226.242H74.3983Z" fill="#2F2E41"/>
<path d="M52.3326 212.524C39.6897 212.524 36.1509 231.665 36.1509 242.464C36.1509 248.486 38.4058 250.64 41.949 251.369L43.2004 243.308L46.1312 251.716C47.1265 251.722 48.1721 251.698 49.2561 251.674L50.2498 249.203L52.4658 251.63C61.3409 251.646 68.514 253.208 68.514 242.464C68.514 231.665 65.4106 212.524 52.3326 212.524Z" fill="#2F2E41"/>
<path d="M116.45 278.791C116.428 278.991 116.398 279.189 116.361 279.387C116.179 280.365 115.83 281.267 115.335 282.034C114.84 282.802 114.211 283.417 113.49 283.839C112.768 284.262 111.969 284.482 111.146 284.486C110.323 284.49 109.494 284.278 108.714 283.862C108.533 283.765 108.355 283.656 108.182 283.537L82.897 300.729C82.0674 301.287 81.092 301.483 80.1158 301.287C79.1395 301.091 78.2143 300.513 77.4775 299.64L77.4401 299.586L62.8455 273.88C62.0489 272.476 61.7095 270.783 61.902 269.171C62.0945 267.56 62.8031 266.162 63.872 265.287C64.9409 264.411 66.2825 264.129 67.6016 264.502C68.9207 264.875 70.1094 265.873 70.906 267.276C70.9242 267.308 70.9422 267.341 70.96 267.373L81.0892 285.87L104.902 275.18C104.951 274.868 105.019 274.562 105.103 274.264C105.581 272.615 106.553 271.296 107.829 270.564C109.105 269.832 110.594 269.739 112.008 270.303C113.423 270.867 114.66 272.048 115.481 273.617C116.302 275.185 116.647 277.03 116.45 278.791L116.45 278.791Z" fill="#FFB8B8"/>
<path d="M111.094 470.222H1.41688C1.26538 470.222 1.12008 470.17 1.01295 470.078C0.905825 469.986 0.845642 469.862 0.845642 469.732C0.845642 469.602 0.905825 469.477 1.01295 469.385C1.12008 469.294 1.26538 469.242 1.41688 469.242H111.094C111.245 469.242 111.39 469.294 111.498 469.385C111.605 469.477 111.665 469.602 111.665 469.732C111.665 469.862 111.605 469.986 111.498 470.078C111.39 470.17 111.245 470.222 111.094 470.222Z" fill="#CCCCCC"/>
</svg>
